<?xml version="1.0" encoding="UTF-8" standalone="no"?>
<svg
   xmlns:dc="http://purl.org/dc/elements/1.1/"
   xmlns:cc="http://creativecommons.org/ns#"
   xmlns:rdf="http://www.w3.org/1999/02/22-rdf-syntax-ns#"
   xmlns:svg="http://www.w3.org/2000/svg"
   xmlns="http://www.w3.org/2000/svg"
   viewBox="0 0 1122.5601 793.76001"
   height="793.76001"
   width="1122.5601"
   xml:space="preserve"
   id="svg2"
   version="1.1"><metadata
     id="metadata8"><rdf:RDF><cc:Work
         rdf:about=""><dc:format>image/svg+xml</dc:format><dc:type
           rdf:resource="http://purl.org/dc/dcmitype/StillImage" /></cc:Work></rdf:RDF></metadata><defs
     id="defs6"><clipPath
       id="clipPath300"
       clipPathUnits="userSpaceOnUse"><path
         id="path298"
         d="M 0,0 H 179 V 22 H 0 Z" /></clipPath></defs><g
     transform="matrix(1.3333333,0,0,-1.3333333,0,793.76)"
     id="g10"><g
       id="g12"><g
         transform="matrix(0.75,0,0,-0.75,0,595.32001)"
         id="g14"><g
           id="g16"><text
             id="text20"
             style="font-variant:normal;font-weight:normal;font-size:13.27950001px;font-family:F1;-inkscape-font-specification:F1;writing-mode:lr-tb;fill:#000000;fill-opacity:1;fill-rule:nonzero;stroke:none"
             transform="translate(376.32001,60.48)"><tspan
               id="tspan18"
               y="0"
               x="0 9.5900297 19.180059 28.770088 38.464123 48.054153 57.748188 66.512657 71.027687 80.617714 85.785568 96.114792 101.42659 110.19106 119.88509 129.47513 139.16916 144.33701 153.92705 157.37971 166.23703 169.55692 178.41423 188.00426 197.6983 207.39233 214.69606 222.92935 233.25856 242.8486 251.87866 260.64313 263.96301 273.78983 282.55429 285.87418 295.56821 305.15823 314.01556 324.50638 334.09641 342.86087 350.24631 353.56616 360.9516 364.27145 373.96552 377.41818">ADVANCE-VIGILÂNCIA E TRANSPORTE DE VALORES S.A. </tspan></text>
</g><g
           id="g22"><text
             id="text26"
             style="font-variant:normal;font-weight:normal;font-size:13.27950001px;font-family:F1;-inkscape-font-specification:F1;writing-mode:lr-tb;fill:#000000;fill-opacity:1;fill-rule:nonzero;stroke:none"
             transform="translate(470.72,75.839996)"><tspan
               id="tspan24"
               y="0"
               x="0 9.5900297 12.909904 23.400709 26.720585 36.310616 39.630489 43.08316 47.505337 60.039162 68.15081 72.66584 77.18087 80.500748 87.140495 93.780243 97.100121 103.87267 110.37962 117.15216 120.47204 127.24458 133.75154 140.52408 144.10954 150.8821 157.38905 164.16159 170.93414 175.35632 181.86327 188.50302">C.G.C. (MF): 11.564.523/0001-87 </tspan></text>
</g><g
           id="g28"><text
             id="text32"
             style="font-variant:normal;font-weight:normal;font-size:13.27950001px;font-family:F1;-inkscape-font-specification:F1;writing-mode:lr-tb;fill:#000000;fill-opacity:1;fill-rule:nonzero;stroke:none"
             transform="translate(336.48001,91.040001)"><tspan
               id="tspan30"
               y="0"
               x="0 9.5900297 18.3545 30.888325 41.217545 51.044376 58.348099 67.378159 76.968193 86.55822 96.148247 106.47747 115.50753 122.81126 126.26392 134.37556 139.54343 149.13345 158.82748 168.52153 178.11156 186.87602 192.18782 201.77785 211.36789 218.6716 222.12428 231.71431 242.04353 245.4962 254.35352 264.04755 272.81201 282.50607 292.2001 297.24631 307.07312 312.11935 322.61014 325.93002 334.04169 339.20953 348.79956 358.38959 368.71881 372.17148 380.93594 393.46976 396.78964 403.56219 410.20193 413.6546 420.29437 427.06689 430.38678 437.15933 443.79907 450.43881 456.94577">DEMONSTRAÇÕES FINANCEIRAS DO EXERCÍCIO FINDO EM 31.12.2021 </tspan></text>
</g><g
           id="g34" /><g
           id="g36"><text
             id="text40"
             style="font-variant:normal;font-weight:normal;font-size:11.99950027px;font-family:F2;-inkscape-font-specification:F2;writing-mode:lr-tb;fill:#000000;fill-opacity:1;fill-rule:nonzero;stroke:none"
             transform="translate(533.53202,117.44)"><tspan
               id="tspan38"
               y="0"
               x="0 7.2008719 14.401744 21.602615 28.803488 36.00436 43.205231 50.406101 57.606976 64.807846 72.00872 79.209587 86.410461 93.611336 100.8122 108.01308 115.21395 122.41482 129.61569 136.81656 144.01744 151.21831">BALANÇOS PATRIMONIAIS </tspan></text>
</g><g
           id="g42"><text
             id="text46"
             style="font-variant:normal;font-weight:normal;font-size:11.99950027px;font-family:F2;-inkscape-font-specification:F2;writing-mode:lr-tb;fill:#000000;fill-opacity:1;fill-rule:nonzero;stroke:none"
             transform="translate(533.53202,131.03999)"><tspan
               id="tspan44"
               y="0"
               x="0 7.2008719 14.401744 21.602615 28.803488 36.00436 43.205231 50.406101 57.606976 64.807846 72.00872 79.209587 86.410461 93.611336 100.8122 108.01308 115.21395 122.41482 129.61569 136.81656 144.01744">---------------------</tspan></text>
</g><g
           id="g48" /><g
           id="g50" /><g
           id="g52"><text
             id="text56"
             style="font-variant:normal;font-weight:normal;font-size:11.99950027px;font-family:F3;-inkscape-font-specification:F3;writing-mode:lr-tb;fill:#000000;fill-opacity:1;fill-rule:nonzero;stroke:none"
             transform="translate(907.97735,158.24)"><tspan
               id="tspan54"
               y="0"
               x="0 7.2008719 14.401744 21.602615 28.803488 36.00436 43.205231 50.406101 57.606976 64.807846 72.00872">Em R$ 1,00 </tspan></text>
</g><g
           id="g58"><text
             id="text62"
             style="font-variant:normal;font-weight:normal;font-size:11.99950027px;font-family:F3;-inkscape-font-specification:F3;writing-mode:lr-tb;fill:#000000;fill-opacity:1;fill-rule:nonzero;stroke:none"
             transform="translate(94.400002,171.84)"><tspan
               id="tspan60"
               y="0"
               x="0 7.2008719 14.401744 21.602615 28.803488 36.00436 43.205231 50.406101 57.606976 64.807846 72.00872 79.209587 86.410461 93.611336 100.8122 108.01308 115.21395 122.41482 129.61569 136.81656 144.01744 151.21831 158.41917 165.62006 172.82092 180.02179 187.22267 194.42354 201.6244 208.82529 216.02615 223.22702 230.4279 237.62877 244.82964 252.03052 259.23138 266.43225 273.63312 280.83401 288.03488 295.23575 302.43661 309.63748 316.83835 324.03925 331.24011 338.44098 345.64185 352.84271 360.04358 367.24448 374.44534 381.52505 388.72592 395.92679 403.12766 410.32852 417.52939 424.73029 431.93115 439.13202 446.33289 453.53375 460.73462 467.93552 475.13638 482.33725 489.53812 496.73898 503.93985 511.14075 518.34161 525.54248 532.74335 539.94421 547.14508 554.34595 561.54681 568.74768 575.94861 583.14948 590.35034 597.55121 604.75208 611.95294 619.15381 626.35468 633.55554 640.75641 647.95728 655.15814 662.35907 669.55994 676.7608 683.96167 691.16254 698.3634 705.56427 712.76514 719.966 727.16687 734.36774 741.5686 748.76953 755.9704 763.17126 770.37213 777.573 784.77386 791.97473 799.1756 806.37646 813.57733 820.7782 827.97906 835.17999 842.38086 849.58173 856.78259 863.98346 871.18433 878.38519 885.58606 892.78693 899.98779 907.18866 914.38953">------------------------------------------------------------------------------------------------------------------------------- </tspan></text>
</g><g
           id="g64"><text
             id="text68"
             style="font-variant:normal;font-weight:normal;font-size:11.99950027px;font-family:F3;-inkscape-font-specification:F3;writing-mode:lr-tb;fill:#000000;fill-opacity:1;fill-rule:nonzero;stroke:none"
             transform="translate(252.81918,185.44)"><tspan
               id="tspan66"
               y="0"
               x="0 7.2008719 21.602615 28.803488 43.205231 50.406101 64.807846 72.00872 86.410461 93.611336 359.92242 367.12329 374.32416 381.52505 388.72592 446.33289 453.53375 460.73462 467.93552 475.13638 532.74335 539.94421 547.14508 554.34595 561.54681 619.15381 626.35468 633.55554 640.75641 647.95728 705.56427 712.76514 719.966 727.16687 734.36774">A T I V O 2021 2020 2019 2018 2017 </tspan></text>
</g><g
           id="g70"><text
             id="text74"
             style="font-variant:normal;font-weight:normal;font-size:11.99950027px;font-family:F3;-inkscape-font-specification:F3;writing-mode:lr-tb;fill:#000000;fill-opacity:1;fill-rule:nonzero;stroke:none"
             transform="translate(94.400002,199.03999)"><tspan
               id="tspan72"
               y="0"
               x="0 7.2008719 14.401744 21.602615 28.803488 36.00436 43.205231 50.406101 57.606976 64.807846 72.00872 79.209587 86.410461 93.611336 100.8122 108.01308 115.21395 122.41482 129.61569 136.81656 144.01744 151.21831 158.41917 165.62006 172.82092 180.02179 187.22267 194.42354 201.6244 208.82529 216.02615 223.22702 230.4279 237.62877 244.82964 252.03052 259.23138 266.43225 273.63312 280.83401 288.03488 295.23575 302.43661 309.63748 316.83835 324.03925 331.24011 338.44098 345.64185 352.84271 360.04358 367.24448 374.44534 381.52505 388.72592 395.92679 403.12766 410.32852 417.52939 424.73029 431.93115 439.13202 446.33289 453.53375 460.73462 467.93552 475.13638 482.33725 489.53812 496.73898 503.93985 511.14075 518.34161 525.54248 532.74335 539.94421 547.14508 554.34595 561.54681 568.74768 575.94861 583.14948 590.35034 597.55121 604.75208 611.95294 619.15381 626.35468 633.55554 640.75641 647.95728 655.15814 662.35907 669.55994 676.7608 683.96167 691.16254 698.3634 705.56427 712.76514 719.966 727.16687 734.36774 741.5686 748.76953 755.9704 763.17126 770.37213 777.573 784.77386 791.97473 799.1756 806.37646 813.57733 820.7782 827.97906 835.17999 842.38086 849.58173 856.78259 863.98346 871.18433 878.38519 885.58606 892.78693 899.98779 907.18866 914.38953">------------------------------------------------------------------------------------------------------------------------------- </tspan></text>
</g><g
           id="g76"><text
             id="text80"
             style="font-variant:normal;font-weight:normal;font-size:11.99950027px;font-family:F3;-inkscape-font-specification:F3;writing-mode:lr-tb;fill:#000000;fill-opacity:1;fill-rule:nonzero;stroke:none"
             transform="translate(94.400002,212.64)"><tspan
               id="tspan78"
               y="0"
               x="0 7.2008719 14.401744 21.602615 28.803488 36.00436 43.205231 50.406101 57.606976 64.807846 72.00872 79.209587 86.410461 93.611336 100.8122 108.01308 115.21395 122.41482 129.61569 136.81656 144.01744 151.21831 158.41917 165.62006 172.82092 180.02179 187.22267 194.42354 201.6244 208.82529 216.02615 223.22702 230.4279 237.62877 244.82964 252.03052 259.23138 266.43225 273.63312 280.83401 288.03488 295.23575 302.43661 309.63748 316.83835 324.03925 331.24011 338.44098 345.64185 352.84271 360.04358 367.24448 374.44534 381.52505 388.72592 395.92679 403.12766 410.32852 417.52939 424.73029 431.93115 439.13202 446.33289 453.53375 460.73462 467.93552 511.14075 518.34161 525.54248 532.74335 539.94421 547.14508 597.55121 604.75208 611.95294 619.15381 626.35468 633.55554 683.96167 691.16254 698.3634 705.56427 712.76514 719.966 770.37213 777.573 784.77386 791.97473 799.1756 806.37646 856.78259 863.98346 871.18433 878.38519 885.58606 892.78693">CIRCULANTE ...................................................... 2.352 2.352 2.352 2.352 2.352 </tspan></text>
</g><g
           id="g82"><text
             id="text86"
             style="font-variant:normal;font-weight:normal;font-size:11.99950027px;font-family:F3;-inkscape-font-specification:F3;writing-mode:lr-tb;fill:#000000;fill-opacity:1;fill-rule:nonzero;stroke:none"
             transform="translate(116.00262,226.24)"><tspan
               id="tspan84"
               y="0"
               x="0 7.2008719 14.401744 21.602615 28.803488 36.00436 43.205231 50.406101 57.606976 64.807846 72.00872 79.209587 86.410461 93.611336 100.8122 108.01308 115.21395 122.41482 129.61569 136.81656 144.01744 151.21831 158.41917 165.62006 172.82092 180.02179 187.22267 194.42354 201.6244 208.82529 216.02615 223.22702 230.4279 237.62877 244.82964 252.03052 259.23138 266.43225 273.63312 280.83401 288.03488 295.23575 302.43661 309.63748 316.83835 324.03925 331.24011 338.44098 345.64185 352.84271 359.92242 367.12329 374.32416 381.52505 388.72592 395.92679 403.12766 410.32852 417.52939 424.73029 431.93115 439.13202 446.33289 518.34161 525.54248 604.75208 611.95294 691.16254 698.3634 777.573 784.77386 863.98346 871.18433">Disponibilidades ............................................. 8 8 8 8 8 </tspan></text>
</g><g
           id="g88"><text
             id="text92"
             style="font-variant:normal;font-weight:normal;font-size:11.99950027px;font-family:F3;-inkscape-font-specification:F3;writing-mode:lr-tb;fill:#000000;fill-opacity:1;fill-rule:nonzero;stroke:none"
             transform="translate(116.00262,239.84)"><tspan
               id="tspan90"
               y="0"
               x="0 7.2008719 14.401744 21.602615 28.803488 36.00436 43.205231 50.406101 57.606976 64.807846 72.00872 79.209587 86.410461 93.611336 100.8122 108.01308 115.21395 122.41482 129.61569 136.81656 144.01744 151.21831 158.41917 165.62006 172.82092 180.02179 187.22267 194.42354 201.6244 208.82529 216.02615 223.22702 230.4279 237.62877 244.82964 252.03052 259.23138 266.43225 273.63312 280.83401 288.03488 295.23575 302.43661 309.63748 316.83835 324.03925 331.24011 338.44098 345.64185 352.84271 359.92242 367.12329 374.32416 381.52505 388.72592 395.92679 403.12766 410.32852 417.52939 424.73029 431.93115 439.13202 446.33289 518.34161 525.54248 604.75208 611.95294 691.16254 698.3634 777.573 784.77386 863.98346 871.18433">Aplicações Financeiras ....................................... - - - - - </tspan></text>
</g><g
           id="g94"><text
             id="text98"
             style="font-variant:normal;font-weight:normal;font-size:11.99950027px;font-family:F3;-inkscape-font-specification:F3;writing-mode:lr-tb;fill:#000000;fill-opacity:1;fill-rule:nonzero;stroke:none"
             transform="translate(116.00262,253.44)"><tspan
               id="tspan96"
               y="0"
               x="0 7.2008719 14.401744 21.602615 28.803488 36.00436 43.205231 50.406101 57.606976 64.807846 72.00872 79.209587 86.410461 93.611336 100.8122 108.01308 115.21395 122.41482 129.61569 136.81656 144.01744 151.21831 158.41917 165.62006 172.82092 180.02179 187.22267 194.42354 201.6244 208.82529 216.02615 223.22702 230.4279 237.62877 244.82964 252.03052 259.23138 266.43225 273.63312 280.83401 288.03488 295.23575 302.43661 309.63748 316.83835 324.03925 331.24011 338.44098 345.64185 352.84271 359.92242 367.12329 374.32416 381.52505 388.72592 395.92679 403.12766 410.32852 417.52939 424.73029 431.93115 439.13202 446.33289 518.34161 525.54248 604.75208 611.95294 691.16254 698.3634 777.573 784.77386 863.98346 871.18433">Contas a Receber ............................................. - - - - - </tspan></text>
</g><g
           id="g100"><text
             id="text104"
             style="font-variant:normal;font-weight:normal;font-size:11.99950027px;font-family:F3;-inkscape-font-specification:F3;writing-mode:lr-tb;fill:#000000;fill-opacity:1;fill-rule:nonzero;stroke:none"
             transform="translate(116.00262,267.04001)"><tspan
               id="tspan102"
               y="0"
               x="0 7.2008719 14.401744 21.602615 28.803488 36.00436 43.205231 50.406101 57.606976 64.807846 72.00872 79.209587 86.410461 93.611336 100.8122 108.01308 115.21395 122.41482 129.61569 136.81656 144.01744 151.21831 158.41917 165.62006 172.82092 180.02179 187.22267 194.42354 201.6244 208.82529 216.02615 223.22702 230.4279 237.62877 244.82964 252.03052 259.23138 266.43225 273.63312 280.83401 288.03488 295.23575 302.43661 309.63748 316.83835 324.03925 331.24011 338.44098 345.64185 352.84271 359.92242 367.12329 374.32416 381.52505 388.72592 395.92679 403.12766 410.32852 417.52939 424.73029 431.93115 439.13202 446.33289 489.53812 496.73898 503.93985 511.14075 518.34161 525.54248 575.94861 583.14948 590.35034 597.55121 604.75208 611.95294 662.35907 669.55994 676.7608 683.96167 691.16254 698.3634 748.76953 755.9704 763.17126 770.37213 777.573 784.77386 835.17999 842.38086 849.58173 856.78259 863.98346 871.18433">Operações com Controladas e Sociedades Ligadas ............... 3.195 3.195 3.195 3.195 3.195 </tspan></text>
</g><g
           id="g106"><text
             id="text110"
             style="font-variant:normal;font-weight:normal;font-size:11.99950027px;font-family:F3;-inkscape-font-specification:F3;writing-mode:lr-tb;fill:#000000;fill-opacity:1;fill-rule:nonzero;stroke:none"
             transform="translate(116.00262,280.64001)"><tspan
               id="tspan108"
               y="0"
               x="0 7.2008719 14.401744 21.602615 28.803488 36.00436 43.205231 50.406101 57.606976 64.807846 72.00872 79.209587 86.410461 93.611336 100.8122 108.01308 115.21395 122.41482 129.61569 136.81656 144.01744 151.21831 158.41917 165.62006 172.82092 180.02179 187.22267 194.42354 201.6244 208.82529 216.02615 223.22702 230.4279 237.62877 244.82964 252.03052 259.23138 266.43225 273.63312 280.83401 288.03488 295.23575 302.43661 309.63748 316.83835 324.03925 331.24011 338.44098 345.64185 352.84271 359.92242 367.12329 374.32416 381.52505 388.72592 395.92679 403.12766 410.32852 417.52939 424.73029 431.93115 439.13202 446.33289 482.33725 489.53812 496.73898 503.93985 511.14075 518.34161 525.54248 532.74335 568.74768 575.94861 583.14948 590.35034 597.55121 604.75208 611.95294 619.15381 655.15814 662.35907 669.55994 676.7608 683.96167 691.16254 698.3634 705.56427 741.5686 748.76953 755.9704 763.17126 770.37213 777.573 784.77386 791.97473 827.97906 835.17999 842.38086 849.58173 856.78259 863.98346 871.18433 878.38519">Provisão para Devedores Duvidosos............................. (3.195) (3.195) (3.195) (3.195) (3.195) </tspan></text>
</g><g
           id="g112"><text
             id="text116"
             style="font-variant:normal;font-weight:normal;font-size:11.99950027px;font-family:F3;-inkscape-font-specification:F3;writing-mode:lr-tb;fill:#000000;fill-opacity:1;fill-rule:nonzero;stroke:none"
             transform="translate(116.00262,294.23999)"><tspan
               id="tspan114"
               y="0"
               x="0 7.2008719 14.401744 21.602615 28.803488 36.00436 43.205231 50.406101 57.606976 64.807846 72.00872 79.209587 86.410461 93.611336 100.8122 108.01308 115.21395 122.41482 129.61569 136.81656 144.01744 151.21831 158.41917 165.62006 172.82092 180.02179 187.22267 194.42354 201.6244 208.82529 216.02615 223.22702 230.4279 237.62877 244.82964 252.03052 259.23138 266.43225 273.63312 280.83401 288.03488 295.23575 302.43661 309.63748 316.83835 324.03925 331.24011 338.44098 345.64185 352.84271 359.92242 367.12329 374.32416 381.52505 388.72592 395.92679 403.12766 410.32852 417.52939 424.73029 431.93115 439.13202 446.33289 482.33725 489.53812 496.73898 503.93985 511.14075 518.34161 525.54248 568.74768 575.94861 583.14948 590.35034 597.55121 604.75208 611.95294 655.15814 662.35907 669.55994 676.7608 683.96167 691.16254 698.3634 741.5686 748.76953 755.9704 763.17126 770.37213 777.573 784.77386 827.97906 835.17999 842.38086 849.58173 856.78259 863.98346 871.18433">Créditos Diversos ............................................ 88.965 88.965 88.965 88.965 88.965 </tspan></text>
</g><g
           id="g118"><text
             id="text122"
             style="font-variant:normal;font-weight:normal;font-size:11.99950027px;font-family:F3;-inkscape-font-specification:F3;writing-mode:lr-tb;fill:#000000;fill-opacity:1;fill-rule:nonzero;stroke:none"
             transform="translate(116.00262,307.84)"><tspan
               id="tspan120"
               y="0"
               x="0 7.2008719 14.401744 21.602615 28.803488 36.00436 43.205231 50.406101 57.606976 64.807846 72.00872 79.209587 86.410461 93.611336 100.8122 108.01308 115.21395 122.41482 129.61569 136.81656 144.01744 151.21831 158.41917 165.62006 172.82092 180.02179 187.22267 194.42354 201.6244 208.82529 216.02615 223.22702 230.4279 237.62877 244.82964 252.03052 259.23138 266.43225 273.63312 280.83401 288.03488 295.23575 302.43661 309.63748 316.83835 324.03925 331.24011 338.44098 345.64185 352.84271 359.92242 367.12329 374.32416 381.52505 388.72592 395.92679 403.12766 410.32852 417.52939 424.73029 431.93115 439.13202 475.13638 482.33725 489.53812 496.73898 503.93985 511.14075 518.34161 525.54248 532.74335 561.54681 568.74768 575.94861 583.14948 590.35034 597.55121 604.75208 611.95294 619.15381 647.95728 655.15814 662.35907 669.55994 676.7608 683.96167 691.16254 698.3634 705.56427 734.36774 741.5686 748.76953 755.9704 763.17126 770.37213 777.573 784.77386 791.97473 820.7782 827.97906 835.17999 842.38086 849.58173 856.78259 863.98346 871.18433 878.38519">Provisão para Perda ......................................... (86.621) (86.621) (86.621) (86.621) (86.621) </tspan></text>
</g><g
           id="g124"><text
             id="text128"
             style="font-variant:normal;font-weight:normal;font-size:11.99950027px;font-family:F3;-inkscape-font-specification:F3;writing-mode:lr-tb;fill:#000000;fill-opacity:1;fill-rule:nonzero;stroke:none"
             transform="translate(94.400002,321.44)"><tspan
               id="tspan126"
               y="0"
               x="0 7.2008719 14.401744 21.602615 28.803488 36.00436 43.205231 50.406101 57.606976 64.807846 72.00872 79.209587 86.410461 93.611336 100.8122 108.01308 115.21395 122.41482 129.61569 136.81656 144.01744 151.21831 158.41917 165.62006 172.82092 180.02179 187.22267 194.42354 201.6244 208.82529 216.02615 223.22702 230.4279 237.62877 244.82964 252.03052 259.23138 266.43225 273.63312 280.83401 288.03488 295.23575 302.43661 309.63748 316.83835 324.03925 331.24011 338.44098 345.64185 352.84271 360.04358 367.24448 374.44534 381.52505 388.72592 395.92679 403.12766 410.32852 417.52939 424.73029 431.93115 439.13202 446.33289 453.53375 460.73462 467.93552 482.33725 489.53812 496.73898 503.93985 511.14075 518.34161 525.54248 532.74335 539.94421 547.14508 568.74768 575.94861 583.14948 590.35034 597.55121 604.75208 611.95294 619.15381 626.35468 633.55554 655.15814 662.35907 669.55994 676.7608 683.96167 691.16254 698.3634 705.56427 712.76514 719.966 741.5686 748.76953 755.9704 763.17126 770.37213 777.573 784.77386 791.97473 799.1756 806.37646 827.97906 835.17999 842.38086 849.58173 856.78259 863.98346 871.18433 878.38519 885.58606 892.78693">ATIVO NÃO CIRCULANTE ............................................ 1.328.448 1.308.961 1.290.670 1.289.588 2.656.929 </tspan></text>
</g><g
           id="g130"><text
             id="text134"
             style="font-variant:normal;font-weight:normal;font-size:11.99950027px;font-family:F3;-inkscape-font-specification:F3;writing-mode:lr-tb;fill:#000000;fill-opacity:1;fill-rule:nonzero;stroke:none"
             transform="translate(94.400002,335.04001)"><tspan
               id="tspan132"
               y="0"
               x="0 7.2008719 14.401744 21.602615 28.803488 36.00436 43.205231 50.406101 57.606976 64.807846 72.00872 79.209587 86.410461 93.611336 100.8122 108.01308 115.21395 122.41482 129.61569 136.81656 144.01744 151.21831 158.41917 165.62006 172.82092 180.02179 187.22267 194.42354 201.6244 208.82529 216.02615 223.22702 230.4279 237.62877 244.82964 252.03052 259.23138 266.43225 273.63312 280.83401 288.03488 295.23575 302.43661 309.63748 316.83835 324.03925 331.24011 338.44098 345.64185 352.84271 360.04358 367.24448 374.44534 381.52505 388.72592 395.92679 403.12766 410.32852 417.52939 424.73029 431.93115 439.13202 446.33289 453.53375 460.73462 467.93552 482.33725 489.53812 496.73898 503.93985 511.14075 518.34161 525.54248 532.74335 539.94421 547.14508 568.74768 575.94861 583.14948 590.35034 597.55121 604.75208 611.95294 619.15381 626.35468 633.55554 655.15814 662.35907 669.55994 676.7608 683.96167 691.16254 698.3634 705.56427 712.76514 719.966 741.5686 748.76953 755.9704 763.17126 770.37213 777.573 784.77386 791.97473 799.1756 806.37646 827.97906 835.17999 842.38086 849.58173 856.78259 863.98346 871.18433 878.38519 885.58606 892.78693">REALIZÁVEL A LONGO PRAZO ........................................ 1.328.448 1.308.961 1.290.670 1.289.588 2.656.929 </tspan></text>
</g><g
           id="g136"><text
             id="text140"
             style="font-variant:normal;font-weight:normal;font-size:11.99950027px;font-family:F3;-inkscape-font-specification:F3;writing-mode:lr-tb;fill:#000000;fill-opacity:1;fill-rule:nonzero;stroke:none"
             transform="translate(116.00262,348.64001)"><tspan
               id="tspan138"
               y="0"
               x="0 7.2008719 14.401744 21.602615 28.803488 36.00436 43.205231 50.406101 57.606976 64.807846 72.00872 79.209587 86.410461 93.611336 100.8122 108.01308 115.21395 122.41482 129.61569 136.81656 144.01744 151.21831 158.41917 165.62006 172.82092 180.02179 187.22267 194.42354 201.6244 208.82529 216.02615 223.22702 230.4279 237.62877 244.82964 252.03052 259.23138 266.43225 273.63312 280.83401 288.03488 295.23575 302.43661 309.63748 316.83835 324.03925 331.24011 338.44098 345.64185 352.84271 359.92242 367.12329 374.32416 381.52505 388.72592 395.92679 403.12766 410.32852 417.52939 424.73029 431.93115 439.13202 446.33289 460.73462 467.93552 475.13638 482.33725 489.53812 496.73898 503.93985 511.14075 518.34161 525.54248 547.14508 554.34595 561.54681 568.74768 575.94861 583.14948 590.35034 597.55121 604.75208 611.95294 633.55554 640.75641 647.95728 655.15814 662.35907 669.55994 676.7608 683.96167 691.16254 698.3634 719.966 727.16687 734.36774 741.5686 748.76953 755.9704 763.17126 770.37213 777.573 784.77386 806.37646 813.57733 820.7782 827.97906 835.17999 842.38086 849.58173 856.78259 863.98346 871.18433">Depósitos Judiciais ............. ............................ 1.328.448 1.308.961 1.290.670 1.289.588 1.271.886 </tspan></text>
</g><g
           id="g142"><text
             id="text146"
             style="font-variant:normal;font-weight:normal;font-size:11.99950027px;font-family:F3;-inkscape-font-specification:F3;writing-mode:lr-tb;fill:#000000;fill-opacity:1;fill-rule:nonzero;stroke:none"
             transform="translate(116.00262,362.23999)"><tspan
               id="tspan144"
               y="0"
               x="0 7.2008719 14.401744 21.602615 28.803488 36.00436 43.205231 50.406101 57.606976 64.807846 72.00872 79.209587 86.410461 93.611336 100.8122 108.01308 115.21395 122.41482 129.61569 136.81656 144.01744 151.21831 158.41917 165.62006 172.82092 180.02179 187.22267 194.42354 201.6244 208.82529 216.02615 223.22702 230.4279 237.62877 244.82964 252.03052 259.23138 266.43225 273.63312 280.83401 288.03488 295.23575 302.43661 309.63748 316.83835 324.03925 331.24011 338.44098 345.64185 352.84271 359.92242 367.12329 374.32416 381.52505 388.72592 395.92679 403.12766 410.32852 417.52939 424.73029 431.93115 439.13202 446.33289 518.34161 525.54248 604.75208 611.95294 691.16254 698.3634 777.573 784.77386 806.37646 813.57733 820.7782 827.97906 835.17999 842.38086 849.58173 856.78259 863.98346 871.18433">Créditos Tributários sob Prejuízo Fiscais .................... - - - - 1.385.043 </tspan></text>
</g><g
           id="g148" /><g
           id="g150"><text
             id="text154"
             style="font-variant:normal;font-weight:normal;font-size:11.99950027px;font-family:F3;-inkscape-font-specification:F3;writing-mode:lr-tb;fill:#000000;fill-opacity:1;fill-rule:nonzero;stroke:none"
             transform="translate(94.400002,389.44)"><tspan
               id="tspan152"
               y="0"
               x="0 7.2008719 14.401744 21.602615 28.803488 36.00436 43.205231 50.406101 57.606976 64.807846 72.00872 79.209587 86.410461 93.611336 100.8122 108.01308 115.21395 122.41482 129.61569 136.81656 144.01744 151.21831 158.41917 165.62006 172.82092 180.02179 187.22267 194.42354 201.6244 208.82529 216.02615 223.22702 230.4279 237.62877 244.82964 252.03052 259.23138 266.43225 273.63312 280.83401 288.03488 295.23575 302.43661 309.63748 316.83835 324.03925 331.24011 338.44098 345.64185 352.84271 360.04358 367.24448 374.44534 381.52505 388.72592 395.92679 403.12766 410.32852 417.52939 424.73029 431.93115 439.13202 446.33289 453.53375 460.73462 467.93552 482.33725 489.53812 496.73898 503.93985 511.14075 518.34161 525.54248 532.74335 539.94421 547.14508 568.74768 575.94861 583.14948 590.35034 597.55121 604.75208 611.95294 619.15381 626.35468 633.55554 655.15814 662.35907 669.55994 676.7608 683.96167 691.16254 698.3634 705.56427 712.76514 719.966 741.5686 748.76953 755.9704 763.17126 770.37213 777.573 784.77386 791.97473 799.1756 806.37646 827.97906 835.17999 842.38086 849.58173 856.78259 863.98346 871.18433 878.38519 885.58606 892.78693">TOTAL ........................................................... 1.330.800 1.311.313 1.293.022 1.291.940 2.659.281 </tspan></text>
</g><g
           id="g156" /><g
           id="g158"><text
             id="text162"
             style="font-variant:normal;font-weight:normal;font-size:11.99950027px;font-family:F3;-inkscape-font-specification:F3;writing-mode:lr-tb;fill:#000000;fill-opacity:1;fill-rule:nonzero;stroke:none"
             transform="translate(94.400002,416.64001)"><tspan
               id="tspan160"
               y="0"
               x="0 7.2008719 14.401744 21.602615 28.803488 36.00436 43.205231 50.406101 57.606976 64.807846 72.00872 79.209587 86.410461 93.611336 100.8122 108.01308 115.21395 122.41482 129.61569 136.81656 144.01744 151.21831 158.41917 165.62006 172.82092 180.02179 187.22267 194.42354 201.6244 208.82529 216.02615 223.22702 230.4279 237.62877 244.82964 252.03052 259.23138 266.43225 273.63312 280.83401 288.03488 295.23575 302.43661 309.63748 316.83835 324.03925 331.24011 338.44098 345.64185 352.84271 360.04358 367.24448 374.44534 381.52505 388.72592 395.92679 403.12766 410.32852 417.52939 424.73029 431.93115 439.13202 446.33289 453.53375 460.73462 467.93552 475.13638 482.33725 489.53812 496.73898 503.93985 511.14075 518.34161 525.54248 532.74335 539.94421 547.14508 554.34595 561.54681 568.74768 575.94861 583.14948 590.35034 597.55121 604.75208 611.95294 619.15381 626.35468 633.55554 640.75641 647.95728 655.15814 662.35907 669.55994 676.7608 683.96167 691.16254 698.3634 705.56427 712.76514 719.966 727.16687 734.36774 741.5686 748.76953 755.9704 763.17126 770.37213 777.573 784.77386 791.97473 799.1756 806.37646 813.57733 820.7782 827.97906 835.17999 842.38086 849.58173 856.78259 863.98346 871.18433 878.38519 885.58606 892.78693 899.98779 907.18866 914.38953">------------------------------------------------------------------------------------------------------------------------------- </tspan></text>
</g><g
           id="g164"><text
             id="text168"
             style="font-variant:normal;font-weight:normal;font-size:11.99950027px;font-family:F3;-inkscape-font-specification:F3;writing-mode:lr-tb;fill:#000000;fill-opacity:1;fill-rule:nonzero;stroke:none"
             transform="translate(245.61831,430.07999)"><tspan
               id="tspan166"
               y="0"
               x="0 7.2008719 14.401744 21.602615 28.803488 36.00436 43.205231 50.406101 57.606976 64.807846 72.00872 79.209587 86.410461 93.611336 367.12329 374.32416 381.52505 388.72592 395.92679 446.33289 453.53375 460.73462 467.93552 475.13638 547.14508 554.34595 561.54681 568.74768 575.94861 626.35468 633.55554 640.75641 647.95728 655.15814 712.76514 719.966 727.16687 734.36774 741.5686">P A S S I V O 2021 2020 2019 2018 2017 </tspan></text>
</g><g
           id="g170"><text
             id="text174"
             style="font-variant:normal;font-weight:normal;font-size:11.99950027px;font-family:F3;-inkscape-font-specification:F3;writing-mode:lr-tb;fill:#000000;fill-opacity:1;fill-rule:nonzero;stroke:none"
             transform="translate(94.400002,443.67999)"><tspan
               id="tspan172"
               y="0"
               x="0 7.2008719 14.401744 21.602615 28.803488 36.00436 43.205231 50.406101 57.606976 64.807846 72.00872 79.209587 86.410461 93.611336 100.8122 108.01308 115.21395 122.41482 129.61569 136.81656 144.01744 151.21831 158.41917 165.62006 172.82092 180.02179 187.22267 194.42354 201.6244 208.82529 216.02615 223.22702 230.4279 237.62877 244.82964 252.03052 259.23138 266.43225 273.63312 280.83401 288.03488 295.23575 302.43661 309.63748 316.83835 324.03925 331.24011 338.44098 345.64185 352.84271 360.04358 367.24448 374.44534 381.52505 388.72592 395.92679 403.12766 410.32852 417.52939 424.73029 431.93115 439.13202 446.33289 453.53375 460.73462 467.93552 475.13638 482.33725 489.53812 496.73898 503.93985 511.14075 518.34161 525.54248 532.74335 539.94421 547.14508 554.34595 561.54681 568.74768 575.94861 583.14948 590.35034 597.55121 604.75208 611.95294 619.15381 626.35468 633.55554 640.75641 647.95728 655.15814 662.35907 669.55994 676.7608 683.96167 691.16254 698.3634 705.56427 712.76514 719.966 727.16687 734.36774 741.5686 748.76953 755.9704 763.17126 770.37213 777.573 784.77386 791.97473 799.1756 806.37646 813.57733 820.7782 827.97906 835.17999 842.38086 849.58173 856.78259 863.98346 871.18433 878.38519 885.58606 892.78693 899.98779 907.18866 914.38953">------------------------------------------------------------------------------------------------------------------------------- </tspan></text>
</g><g
           id="g176"><text
             id="text180"
             style="font-variant:normal;font-weight:normal;font-size:11.99950027px;font-family:F3;-inkscape-font-specification:F3;writing-mode:lr-tb;fill:#000000;fill-opacity:1;fill-rule:nonzero;stroke:none"
             transform="translate(94.400002,457.28)"><tspan
               id="tspan178"
               y="0"
               x="0 7.2008719 14.401744 21.602615 28.803488 36.00436 43.205231 50.406101 57.606976 64.807846 72.00872 79.209587 86.410461 93.611336 100.8122 108.01308 115.21395 122.41482 129.61569 136.81656 144.01744 151.21831 158.41917 165.62006 172.82092 180.02179 187.22267 194.42354 201.6244 208.82529 216.02615 223.22702 230.4279 237.62877 244.82964 252.03052 259.23138 266.43225 273.63312 280.83401 288.03488 295.23575 302.43661 309.63748 316.83835 324.03925 331.24011 338.44098 345.64185 352.84271 360.04358 367.24448 374.44534 381.52505 388.72592 395.92679 403.12766 410.32852 417.52939 424.73029 431.93115 439.13202 446.33289 453.53375 460.73462 467.93552 482.33725 489.53812 496.73898 503.93985 511.14075 518.34161 525.54248 532.74335 539.94421 547.14508 568.74768 575.94861 583.14948 590.35034 597.55121 604.75208 611.95294 619.15381 626.35468 633.55554 655.15814 662.35907 669.55994 676.7608 683.96167 691.16254 698.3634 705.56427 712.76514 719.966 741.5686 748.76953 755.9704 763.17126 770.37213 777.573 784.77386 791.97473 799.1756 806.37646 827.97906 835.17999 842.38086 849.58173 856.78259 863.98346 871.18433 878.38519 885.58606 892.78693">CIRCULANTE ...................................................... 4.881.893 4.868.479 4.857.049 4.861.424 6.246.467 </tspan></text>
</g><g
           id="g182"><text
             id="text186"
             style="font-variant:normal;font-weight:normal;font-size:11.99950027px;font-family:F3;-inkscape-font-specification:F3;writing-mode:lr-tb;fill:#000000;fill-opacity:1;fill-rule:nonzero;stroke:none"
             transform="translate(116.00262,470.88)"><tspan
               id="tspan184"
               y="0"
               x="0 7.2008719 14.401744 21.602615 28.803488 36.00436 43.205231 50.406101 57.606976 64.807846 72.00872 79.209587 86.410461 93.611336 100.8122 108.01308 115.21395 122.41482 129.61569 136.81656 144.01744 151.21831 158.41917 165.62006 172.82092 180.02179 187.22267 194.42354 201.6244 208.82529 216.02615 223.22702 230.4279 237.62877 244.82964 252.03052 259.23138 266.43225 273.63312 280.83401 288.03488 295.23575 302.43661 309.63748 316.83835 324.03925 331.24011 338.44098 345.64185 352.84271 359.92242 367.12329 374.32416 381.52505 388.72592 395.92679 403.12766 410.32852 417.52939 424.73029 431.93115 439.13202 446.33289 460.73462 467.93552 475.13638 482.33725 489.53812 496.73898 503.93985 511.14075 518.34161 525.54248 547.14508 554.34595 561.54681 568.74768 575.94861 583.14948 590.35034 597.55121 604.75208 611.95294 633.55554 640.75641 647.95728 655.15814 662.35907 669.55994 676.7608 683.96167 691.16254 698.3634 719.966 727.16687 734.36774 741.5686 748.76953 755.9704 763.17126 770.37213 777.573 784.77386 806.37646 813.57733 820.7782 827.97906 835.17999 842.38086 849.58173 856.78259 863.98346 871.18433">Valores a Pagar a Sociedades Ligadas ......................... 1.977.206 1.887.888 1.800.554 1.337.538 1.258.268 </tspan></text>
</g><g
           id="g188"><text
             id="text192"
             style="font-variant:normal;font-weight:normal;font-size:11.99950027px;font-family:F3;-inkscape-font-specification:F3;writing-mode:lr-tb;fill:#000000;fill-opacity:1;fill-rule:nonzero;stroke:none"
             transform="translate(116.00262,484.48001)"><tspan
               id="tspan190"
               y="0"
               x="0 7.2008719 14.401744 21.602615 28.803488 36.00436 43.205231 50.406101 57.606976 64.807846 72.00872 79.209587 86.410461 93.611336 100.8122 108.01308 115.21395 122.41482 129.61569 136.81656 144.01744 151.21831 158.41917 165.62006 172.82092 180.02179 187.22267 194.42354 201.6244 208.82529 216.02615 223.22702 230.4279 237.62877 244.82964 252.03052 259.23138 266.43225 273.63312 280.83401 288.03488 295.23575 302.43661 309.63748 316.83835 324.03925 331.24011 338.44098 345.64185 352.84271 359.92242 367.12329 374.32416 381.52505 388.72592 395.92679 403.12766 410.32852 417.52939 424.73029 431.93115 439.13202 446.33289 460.73462 467.93552 475.13638 482.33725 489.53812 496.73898 503.93985 511.14075 518.34161 525.54248 547.14508 554.34595 561.54681 568.74768 575.94861 583.14948 590.35034 597.55121 604.75208 611.95294 633.55554 640.75641 647.95728 655.15814 662.35907 669.55994 676.7608 683.96167 691.16254 698.3634 719.966 727.16687 734.36774 741.5686 748.76953 755.9704 763.17126 770.37213 777.573 784.77386 806.37646 813.57733 820.7782 827.97906 835.17999 842.38086 849.58173 856.78259 863.98346 871.18433">Impostos e Contribuições a Recolher .......................... 2.726.193 2.802.097 2.878.001 3.346.183 4.810.496 </tspan></text>
</g><g
           id="g194"><text
             id="text198"
             style="font-variant:normal;font-weight:normal;font-size:11.99950027px;font-family:F3;-inkscape-font-specification:F3;writing-mode:lr-tb;fill:#000000;fill-opacity:1;fill-rule:nonzero;stroke:none"
             transform="translate(116.00262,498.07999)"><tspan
               id="tspan196"
               y="0"
               x="0 7.2008719 14.401744 21.602615 28.803488 36.00436 43.205231 50.406101 57.606976 64.807846 72.00872 79.209587 86.410461 93.611336 100.8122 108.01308 115.21395 122.41482 129.61569 136.81656 144.01744 151.21831 158.41917 165.62006 172.82092 180.02179 187.22267 194.42354 201.6244 208.82529 216.02615 223.22702 230.4279 237.62877 244.82964 252.03052 259.23138 266.43225 273.63312 280.83401 288.03488 295.23575 302.43661 309.63748 316.83835 324.03925 331.24011 338.44098 345.64185 352.84271 359.92242 367.12329 374.32416 381.52505 388.72592 395.92679 403.12766 410.32852 417.52939 424.73029 431.93115 439.13202 446.33289 475.13638 482.33725 489.53812 496.73898 503.93985 511.14075 518.34161 525.54248 561.54681 568.74768 575.94861 583.14948 590.35034 597.55121 604.75208 611.95294 647.95728 655.15814 662.35907 669.55994 676.7608 683.96167 691.16254 698.3634 734.36774 741.5686 748.76953 755.9704 763.17126 770.37213 777.573 784.77386 820.7782 827.97906 835.17999 842.38086 849.58173 856.78259 863.98346 871.18433">Outras Obrigações ............................................ 144.200 144.200 144.200 143.409 143.409 </tspan></text>
</g><g
           id="g200"><text
             id="text204"
             style="font-variant:normal;font-weight:normal;font-size:11.99950027px;font-family:F3;-inkscape-font-specification:F3;writing-mode:lr-tb;fill:#000000;fill-opacity:1;fill-rule:nonzero;stroke:none"
             transform="translate(116.00262,511.67999)"><tspan
               id="tspan202"
               y="0"
               x="0 7.2008719 14.401744 21.602615 28.803488 36.00436 43.205231 50.406101 57.606976 64.807846 72.00872 79.209587 86.410461 93.611336 100.8122 108.01308 115.21395 122.41482 129.61569 136.81656 144.01744 151.21831 158.41917 165.62006 172.82092 180.02179 187.22267 194.42354 201.6244 208.82529 216.02615 223.22702 230.4279 237.62877 244.82964 252.03052 259.23138 266.43225 273.63312 280.83401 288.03488 295.23575 302.43661 309.63748 316.83835 324.03925 331.24011 338.44098 345.64185 352.84271 359.92242 367.12329 374.32416 381.52505 388.72592 395.92679 403.12766 410.32852 417.52939 424.73029 431.93115 439.13202 446.33289 482.33725 489.53812 496.73898 503.93985 511.14075 518.34161 525.54248 568.74768 575.94861 583.14948 590.35034 597.55121 604.75208 611.95294 655.15814 662.35907 669.55994 676.7608 683.96167 691.16254 698.3634 741.5686 748.76953 755.9704 763.17126 770.37213 777.573 784.77386 827.97906 835.17999 842.38086 849.58173 856.78259 863.98346 871.18433">Obrigações Fiscais ........................................... 34.294 34.294 34.294 34.294 34.294 </tspan></text>
</g><g
           id="g206"><text
             id="text210"
             style="font-variant:normal;font-weight:normal;font-size:11.99950027px;font-family:F3;-inkscape-font-specification:F3;writing-mode:lr-tb;fill:#000000;fill-opacity:1;fill-rule:nonzero;stroke:none"
             transform="translate(94.400002,525.28003)"><tspan
               id="tspan208"
               y="0"
               x="0 7.2008719 14.401744 21.602615 28.803488 36.00436 43.205231 50.406101 57.606976 64.807846 72.00872 79.209587 86.410461 93.611336 100.8122 108.01308 115.21395 122.41482 129.61569 136.81656 144.01744 151.21831 158.41917 165.62006 172.82092 180.02179 187.22267 194.42354 201.6244 208.82529 216.02615 223.22702 230.4279 237.62877 244.82964 252.03052 259.23138 266.43225 273.63312 280.83401 288.03488 295.23575 302.43661 309.63748 316.83835 324.03925 331.24011 338.44098 345.64185 352.84271 360.04358 367.24448 374.44534 381.52505 388.72592 395.92679 403.12766 410.32852 417.52939 424.73029 431.93115 439.13202 446.33289 453.53375 460.73462 467.93552 482.33725 489.53812 496.73898 503.93985 511.14075 518.34161 525.54248 532.74335 539.94421 547.14508 568.74768 575.94861 583.14948 590.35034 597.55121 604.75208 611.95294 619.15381 626.35468 633.55554 655.15814 662.35907 669.55994 676.7608 683.96167 691.16254 698.3634 705.56427 712.76514 719.966 741.5686 748.76953 755.9704 763.17126 770.37213 777.573 784.77386 791.97473 799.1756 806.37646 827.97906 835.17999 842.38086 849.58173 856.78259 863.98346 871.18433 878.38519 885.58606 892.78693">PASSIVO NÃO CIRCULANTE .......................................... 1.873.142 1.853.655 1.835.364 1.834.282 1.816.580 </tspan></text>
</g><g
           id="g212"><text
             id="text216"
             style="font-variant:normal;font-weight:normal;font-size:11.99950027px;font-family:F3;-inkscape-font-specification:F3;writing-mode:lr-tb;fill:#000000;fill-opacity:1;fill-rule:nonzero;stroke:none"
             transform="translate(94.400002,538.88)"><tspan
               id="tspan214"
               y="0"
               x="0 7.2008719 14.401744 21.602615 28.803488 36.00436 43.205231 50.406101 57.606976 64.807846 72.00872 79.209587 86.410461 93.611336 100.8122 108.01308 115.21395 122.41482 129.61569 136.81656 144.01744 151.21831 158.41917 165.62006 172.82092 180.02179 187.22267 194.42354 201.6244 208.82529 216.02615 223.22702 230.4279 237.62877 244.82964 252.03052 259.23138 266.43225 273.63312 280.83401 288.03488 295.23575 302.43661 309.63748 316.83835 324.03925 331.24011 338.44098 345.64185 352.84271 360.04358 367.24448 374.44534 381.52505 388.72592 395.92679 403.12766 410.32852 417.52939 424.73029 431.93115 439.13202 446.33289 453.53375 460.73462 467.93552 482.33725 489.53812 496.73898 503.93985 511.14075 518.34161 525.54248 532.74335 539.94421 547.14508 568.74768 575.94861 583.14948 590.35034 597.55121 604.75208 611.95294 619.15381 626.35468 633.55554 655.15814 662.35907 669.55994 676.7608 683.96167 691.16254 698.3634 705.56427 712.76514 719.966 741.5686 748.76953 755.9704 763.17126 770.37213 777.573 784.77386 791.97473 799.1756 806.37646 827.97906 835.17999 842.38086 849.58173 856.78259 863.98346 871.18433 878.38519 885.58606 892.78693">EXIGÍVEL A LONGO PRAZO .......................................... 1.873.142 1.853.655 1.835.364 1.834.282 1.816.580 </tspan></text>
</g><g
           id="g218"><text
             id="text222"
             style="font-variant:normal;font-weight:normal;font-size:11.99950027px;font-family:F3;-inkscape-font-specification:F3;writing-mode:lr-tb;fill:#000000;fill-opacity:1;fill-rule:nonzero;stroke:none"
             transform="translate(116.00262,552.47998)"><tspan
               id="tspan220"
               y="0"
               x="0 7.2008719 14.401744 21.602615 28.803488 36.00436 43.205231 50.406101 57.606976 64.807846 72.00872 79.209587 86.410461 93.611336 100.8122 108.01308 115.21395 122.41482 129.61569 136.81656 144.01744 151.21831 158.41917 165.62006 172.82092 180.02179 187.22267 194.42354 201.6244 208.82529 216.02615 223.22702 230.4279 237.62877 244.82964 252.03052 259.23138 266.43225 273.63312 280.83401 288.03488 295.23575 302.43661 309.63748 316.83835 324.03925 331.24011 338.44098 345.64185 352.84271 359.92242 367.12329 374.32416 381.52505 388.72592 395.92679 403.12766 410.32852 417.52939 424.73029 431.93115 439.13202 446.33289 460.73462 467.93552 475.13638 482.33725 489.53812 496.73898 503.93985 511.14075 518.34161 525.54248 547.14508 554.34595 561.54681 568.74768 575.94861 583.14948 590.35034 597.55121 604.75208 611.95294 633.55554 640.75641 647.95728 655.15814 662.35907 669.55994 676.7608 683.96167 691.16254 698.3634 719.966 727.16687 734.36774 741.5686 748.76953 755.9704 763.17126 770.37213 777.573 784.77386 806.37646 813.57733 820.7782 827.97906 835.17999 842.38086 849.58173 856.78259 863.98346 871.18433">Provisão para Passivos Contingentes .......................... 1.873.142 1.853.655 1.835.364 1.834.282 1.816.580 </tspan></text>
</g><g
           id="g224"><text
             id="text228"
             style="font-variant:normal;font-weight:normal;font-size:11.99950027px;font-family:F3;-inkscape-font-specification:F3;writing-mode:lr-tb;fill:#000000;fill-opacity:1;fill-rule:nonzero;stroke:none"
             transform="translate(94.400002,566.08002)"><tspan
               id="tspan226"
               y="0"
               x="0 7.2008719 14.401744 21.602615 28.803488 36.00436 43.205231 50.406101 57.606976 64.807846 72.00872 79.209587 86.410461 93.611336 100.8122 108.01308 115.21395 122.41482 129.61569 136.81656 144.01744 151.21831 158.41917 165.62006 172.82092 180.02179 187.22267 194.42354 201.6244 208.82529 216.02615 223.22702 230.4279 237.62877 244.82964 252.03052 259.23138 266.43225 273.63312 280.83401 288.03488 295.23575 302.43661 309.63748 316.83835 324.03925 331.24011 338.44098 345.64185 352.84271 360.04358 367.24448 374.44534 381.52505 388.72592 395.92679 403.12766 410.32852 417.52939 424.73029 431.93115 439.13202 446.33289 453.53375 460.73462 467.93552 475.13638 482.33725 489.53812 496.73898 503.93985 511.14075 518.34161 525.54248 532.74335 539.94421 547.14508 554.34595 561.54681 568.74768 575.94861 583.14948 590.35034 597.55121 604.75208 611.95294 619.15381 626.35468 633.55554 640.75641 647.95728 655.15814 662.35907 669.55994 676.7608 683.96167 691.16254 698.3634 705.56427 712.76514 719.966 727.16687 734.36774 741.5686 748.76953 755.9704 763.17126 770.37213 777.573 784.77386 791.97473 799.1756 806.37646 813.57733 820.7782 827.97906 835.17999 842.38086 849.58173 856.78259 863.98346 871.18433 878.38519 885.58606 892.78693 899.98779">PATRIMÔNIO LÍQUIDO............................................... (5.424.235) (5.410.821) (5.399.391) (5.403.766) (5.403.766) </tspan></text>
</g><g
           id="g230"><text
             id="text234"
             style="font-variant:normal;font-weight:normal;font-size:11.99950027px;font-family:F3;-inkscape-font-specification:F3;writing-mode:lr-tb;fill:#000000;fill-opacity:1;fill-rule:nonzero;stroke:none"
             transform="translate(116.00262,579.67999)"><tspan
               id="tspan232"
               y="0"
               x="0 7.2008719 14.401744 21.602615 28.803488 36.00436 43.205231 50.406101 57.606976 64.807846 72.00872 79.209587 86.410461 93.611336 100.8122 108.01308 115.21395 122.41482 129.61569 136.81656 144.01744 151.21831 158.41917 165.62006 172.82092 180.02179 187.22267 194.42354 201.6244 208.82529 216.02615 223.22702 230.4279 237.62877 244.82964 252.03052 259.23138 266.43225 273.63312 280.83401 288.03488 295.23575 302.43661 309.63748 316.83835 324.03925 331.24011 338.44098 345.64185 352.84271 359.92242 367.12329 374.32416 381.52505 388.72592 395.92679 403.12766 410.32852 417.52939 424.73029 431.93115 439.13202 446.33289 460.73462 467.93552 475.13638 482.33725 489.53812 496.73898 503.93985 511.14075 518.34161 525.54248 547.14508 554.34595 561.54681 568.74768 575.94861 583.14948 590.35034 597.55121 604.75208 611.95294 633.55554 640.75641 647.95728 655.15814 662.35907 669.55994 676.7608 683.96167 691.16254 698.3634 719.966 727.16687 734.36774 741.5686 748.76953 755.9704 763.17126 770.37213 777.573 784.77386 806.37646 813.57733 820.7782 827.97906 835.17999 842.38086 849.58173 856.78259 863.98346 871.18433">Capital Social ............................................... 5.400.000 5.400.000 5.400.000 5.400.000 5.400.000 </tspan></text>
</g><g
           id="g236"><text
             id="text240"
             style="font-variant:normal;font-weight:normal;font-size:11.99950027px;font-family:F3;-inkscape-font-specification:F3;writing-mode:lr-tb;fill:#000000;fill-opacity:1;fill-rule:nonzero;stroke:none"
             transform="translate(116.00262,593.28003)"><tspan
               id="tspan238"
               y="0"
               x="0 7.2008719 14.401744 21.602615 28.803488 36.00436 43.205231 50.406101 57.606976 64.807846 72.00872 79.209587 86.410461 93.611336 100.8122 108.01308 115.21395 122.41482 129.61569 136.81656 144.01744 151.21831 158.41917 165.62006 172.82092 180.02179 187.22267 194.42354 201.6244 208.82529 216.02615 223.22702 230.4279 237.62877 244.82964 252.03052 259.23138 266.43225 273.63312 280.83401 288.03488 295.23575 302.43661 309.63748 316.83835 324.03925 331.24011 338.44098 345.64185 352.84271 359.92242 367.12329 374.32416 381.52505 388.72592 395.92679 403.12766 410.32852 417.52939 424.73029 431.93115 439.13202 446.33289 518.34161 525.54248 597.55121 604.75208 691.16254 698.3634 777.573 784.77386 863.98346 871.18433">Reservas de Capital........................................... - - - - - </tspan></text>
</g><g
           id="g242"><text
             id="text246"
             style="font-variant:normal;font-weight:normal;font-size:11.99950027px;font-family:F3;-inkscape-font-specification:F3;writing-mode:lr-tb;fill:#000000;fill-opacity:1;fill-rule:nonzero;stroke:none"
             transform="translate(116.00262,606.88)"><tspan
               id="tspan244"
               y="0"
               x="0 7.2008719 14.401744 21.602615 28.803488 36.00436 43.205231 50.406101 57.606976 64.807846 72.00872 79.209587 86.410461 93.611336 100.8122 108.01308 115.21395 122.41482 129.61569 136.81656 144.01744 151.21831 158.41917 165.62006 172.82092 180.02179 187.22267 194.42354 201.6244 208.82529 216.02615 223.22702 230.4279 237.62877 244.82964 252.03052 259.23138 266.43225 273.63312 280.83401 288.03488 295.23575 302.43661 309.63748 316.83835 324.03925 331.24011 338.44098 345.64185 352.84271 359.92242 367.12329 374.32416 381.52505 388.72592 395.92679 403.12766 410.32852 417.52939 424.73029 431.93115 439.13202 446.33289 453.53375 460.73462 467.93552 475.13638 482.33725 489.53812 496.73898 503.93985 511.14075 518.34161 525.54248 532.74335 539.94421 547.14508 554.34595 561.54681 568.74768 575.94861 583.14948 590.35034 597.55121 604.75208 611.95294 619.15381 626.35468 633.55554 640.75641 647.95728 655.15814 662.35907 669.55994 676.7608 683.96167 691.16254 698.3634 705.56427 712.76514 719.966 727.16687 734.36774 741.5686 748.76953 755.9704 763.17126 770.37213 777.573 784.77386 791.97473 799.1756 806.37646 813.57733 820.7782 827.97906 835.17999 842.38086 849.58173 856.78259 863.98346 871.18433 878.38519">Prejuízos Acumulados .........................................(10.824.235)(10.810.821)(10.799.391)(10.803.766)(10.803.766) </tspan></text>
</g><g
           id="g248" /><g
           id="g250"><text
             id="text254"
             style="font-variant:normal;font-weight:normal;font-size:11.99950027px;font-family:F3;-inkscape-font-specification:F3;writing-mode:lr-tb;fill:#000000;fill-opacity:1;fill-rule:nonzero;stroke:none"
             transform="translate(94.400002,634.08002)"><tspan
               id="tspan252"
               y="0"
               x="0 7.2008719 14.401744 21.602615 28.803488 36.00436 43.205231 50.406101 57.606976 64.807846 72.00872 79.209587 86.410461 93.611336 100.8122 108.01308 115.21395 122.41482 129.61569 136.81656 144.01744 151.21831 158.41917 165.62006 172.82092 180.02179 187.22267 194.42354 201.6244 208.82529 216.02615 223.22702 230.4279 237.62877 244.82964 252.03052 259.23138 266.43225 273.63312 280.83401 288.03488 295.23575 302.43661 309.63748 316.83835 324.03925 331.24011 338.44098 345.64185 352.84271 360.04358 367.24448 374.44534 381.52505 388.72592 395.92679 403.12766 410.32852 417.52939 424.73029 431.93115 439.13202 446.33289 453.53375 460.73462 467.93552 482.33725 489.53812 496.73898 503.93985 511.14075 518.34161 525.54248 532.74335 539.94421 547.14508 568.74768 575.94861 583.14948 590.35034 597.55121 604.75208 611.95294 619.15381 626.35468 633.55554 655.15814 662.35907 669.55994 676.7608 683.96167 691.16254 698.3634 705.56427 712.76514 719.966 741.5686 748.76953 755.9704 763.17126 770.37213 777.573 784.77386 791.97473 799.1756 806.37646 827.97906 835.17999 842.38086 849.58173 856.78259 863.98346 871.18433 878.38519 885.58606 892.78693">TOTAL ........................................................... 1.330.800 1.311.313 1.293.022 1.291.940 2.659.281 </tspan></text>
</g><g
           id="g256" /><g
           id="g258"><text
             id="text262"
             style="font-variant:normal;font-weight:normal;font-size:11.99950027px;font-family:F3;-inkscape-font-specification:F3;writing-mode:lr-tb;fill:#000000;fill-opacity:1;fill-rule:nonzero;stroke:none"
             transform="translate(94.400002,661.28003)"><tspan
               id="tspan260"
               y="0"
               x="0 7.2008719 14.401744 21.602615 28.803488 36.00436 43.205231 50.406101 57.606976 64.807846 72.00872 79.209587 86.410461 93.611336 100.8122 108.01308 115.21395 122.41482 129.61569 136.81656 144.01744 151.21831 158.41917 165.62006 172.82092 180.02179 187.22267 194.42354 201.6244 208.82529 216.02615 223.22702 230.4279 237.62877 244.82964 252.03052 259.23138 266.43225 273.63312 280.83401 288.03488 295.23575 302.43661 309.63748 316.83835 324.03925 331.24011 338.44098 345.64185 352.84271 360.04358 367.24448 374.44534 381.52505 388.72592 395.92679 403.12766 410.32852 417.52939 653.08075 660.28162 667.48248 674.68335 681.88422 689.08514 696.28601 703.48688 710.68774 717.88861 725.08948 732.29034 739.49121 746.69208 753.89294 761.09381 768.29468 775.49561 782.69647 789.89734 797.09821 804.29907 811.49994 818.70081 825.90167 833.10254 840.30341 847.50427 854.70514">Santa Luzia Empreendimentos Imobiliários S/A em Liquidação Marcos Antonio Pinto Ribeiro </tspan></text>
</g><g
           id="g264"><text
             id="text268"
             style="font-variant:normal;font-weight:normal;font-size:11.99950027px;font-family:F3;-inkscape-font-specification:F3;writing-mode:lr-tb;fill:#000000;fill-opacity:1;fill-rule:nonzero;stroke:none"
             transform="translate(94.400002,674.88)"><tspan
               id="tspan266"
               y="0"
               x="0 7.2008719 14.401744 21.602615 28.803488 36.00436 43.205231 50.406101 57.606976 64.807846 72.00872 79.209587 86.410461 93.611336 100.8122 108.01308 115.21395 122.41482 129.61569 136.81656 144.01744 151.21831 158.41917 165.62006 172.82092 180.02179 187.22267 194.42354 201.6244 208.82529 216.02615 223.22702 230.4279 237.62877 244.82964 252.03052 259.23138 266.43225 273.63312 653.05731 660.25818 667.45905 674.65991 681.86078 689.06171 696.26257 703.46344 710.66431 725.06604 732.26691 739.46777 746.66864 753.86951 761.07037 768.27124 775.47217 782.67303 789.8739">Paulo Fernando de Araújo Pereira Filho CRC - PE Nº 13.102 </tspan></text>
</g><g
           id="g270"><text
             id="text274"
             style="font-variant:normal;font-weight:normal;font-size:11.99950027px;font-family:F3;-inkscape-font-specification:F3;writing-mode:lr-tb;fill:#000000;fill-opacity:1;fill-rule:nonzero;stroke:none"
             transform="translate(94.400002,688.47998)"><tspan
               id="tspan272"
               y="0"
               x="0 7.2008719 14.401744 21.602615 28.803488 36.00436 43.205231 50.406101 57.606976 64.807846 72.00872 79.209587 86.410461 93.611336 100.8122 108.01308 115.21395 122.41482 129.61569 136.81656 144.01744 151.21831 158.41917 165.62006 172.82092 180.02179 187.22267 194.42354 201.6244 208.82529 216.02615 223.22702 230.4279 237.62877 244.82964 252.03052 259.23138 266.43225 273.63312 280.83401 288.03488">De acordo com o artigo 150 parágrafo 2º, </tspan></text>
</g><g
           id="g276"><text
             id="text280"
             style="font-variant:normal;font-weight:normal;font-size:11.99950027px;font-family:F3;-inkscape-font-specification:F3;writing-mode:lr-tb;fill:#000000;fill-opacity:1;fill-rule:nonzero;stroke:none"
             transform="translate(94.400002,702.08002)"><tspan
               id="tspan278"
               y="0"
               x="0 7.2008719 14.401744 21.602615 28.803488 36.00436 43.205231 50.406101 57.606976 64.807846 72.00872 79.209587 86.410461 93.611336 100.8122 108.01308 115.21395 122.41482 129.61569 136.81656 144.01744 151.21831 158.41917 165.62006 172.82092 180.02179 187.22267 194.42354">da Lei 6.404, de 15/12/1976 </tspan></text>
</g><g
           id="g282" /><g
           id="g284" /></g><g
         id="g286"><text
           id="text290"
           style="font-variant:normal;font-weight:normal;font-size:12px;font-family:ArialMT-Identity;-inkscape-font-specification:ArialMT-Identity-H;writing-mode:lr-tb;fill:#000000;fill-opacity:1;fill-rule:nonzero;stroke:none"
           transform="matrix(1,0,0,-1,40.615,32.742)"><tspan
             id="tspan288"
             y="0"
             x="0 8.0039997 10.668 14.004 20.676001 24.011999 27.348 34.02 37.355999 40.692001 47.363998 53.363998 56.700001 60.035999 63.372002 72.036003 80.699997 89.363998 92.699997 99.372002 106.044 112.044 118.716 125.388 131.388 138.06 141.396 144.06 154.056 160.728 164.064 170.73599">Site: https://www.advance.imb.br</tspan></text>
</g></g><g
       id="g292"><g
         transform="translate(38.493,26.782)"
         id="g294"><g
           id="g296" /><g
           id="g310"><g
             id="g308"
             clip-path="url(#clipPath300)"><g
               id="g306"
               transform="matrix(1,0,0,-1,0,22)"><g
                 id="g304"><path
                   id="path302"
                   style="fill:#e0e0e0;fill-opacity:1;fill-rule:nonzero;stroke:none"
                   d="M 0,0 H 179 V 22 H 0 Z" /></g></g></g></g></g></g><g
       id="g312"><text
         id="text316"
         style="font-variant:normal;font-weight:normal;font-size:18px;font-family:ArialMT-Identity;-inkscape-font-specification:ArialMT-Identity-H;writing-mode:lr-tb;fill:#000000;fill-opacity:1;fill-rule:nonzero;stroke:none"
         transform="matrix(1,0,0,-1,38.493,32.092)"><tspan
           id="tspan314"
           y="0"
           x="0 10.008 15.012 20.016001 30.024 35.028 40.032001 45.035999 55.043999 65.052002 74.052002 84.059998 94.068001 103.068 113.076 118.08 122.076 137.07001 147.078 152.082 162.09">http://advance.imb.br</tspan></text>
</g></g></svg>