<?xml version="1.0" encoding="UTF-8" standalone="no"?>
<svg
   xmlns:dc="http://purl.org/dc/elements/1.1/"
   xmlns:cc="http://creativecommons.org/ns#"
   xmlns:rdf="http://www.w3.org/1999/02/22-rdf-syntax-ns#"
   xmlns:svg="http://www.w3.org/2000/svg"
   xmlns="http://www.w3.org/2000/svg"
   viewBox="0 0 1122.5601 793.76001"
   height="793.76001"
   width="1122.5601"
   xml:space="preserve"
   id="svg2"
   version="1.1"><metadata
     id="metadata8"><rdf:RDF><cc:Work
         rdf:about=""><dc:format>image/svg+xml</dc:format><dc:type
           rdf:resource="http://purl.org/dc/dcmitype/StillImage" /></cc:Work></rdf:RDF></metadata><defs
     id="defs6"><clipPath
       id="clipPath226"
       clipPathUnits="userSpaceOnUse"><path
         id="path224"
         d="M 0,0 H 168 V 22 H 0 Z" /></clipPath></defs><g
     transform="matrix(1.3333333,0,0,-1.3333333,0,793.76)"
     id="g10"><g
       transform="matrix(0.75,0,0,-0.75,0,595.32001)"
       id="g12"><g
         id="g14"><text
           id="text18"
           style="font-variant:normal;font-weight:normal;font-size:13.27950001px;font-family:F1;-inkscape-font-specification:F1;writing-mode:lr-tb;fill:#000000;fill-opacity:1;fill-rule:nonzero;stroke:none"
           transform="translate(376.32001,60.48)"><tspan
             id="tspan16"
             y="0"
             x="0 9.5900297 19.180059 28.770088 38.464123 48.054153 57.748188 66.512657 71.027687 80.617714 85.785568 96.114792 101.42659 110.19106 119.88509 129.47513 139.16916 144.33701 153.92705 157.37971 166.23703 169.55692 178.41423 188.00426 197.6983 207.39233 214.69606 222.92935 233.25856 242.8486 251.87866 260.64313 263.96301 273.78983 282.55429 285.87418 295.56821 305.15823 314.01556 324.50638 334.09641 342.86087 350.24631 353.56616 360.9516 364.27145 373.96552 377.41818">ADVANCE-VIGILÂNCIA E TRANSPORTE DE VALORES S.A. </tspan></text>
</g><g
         id="g20"><text
           id="text24"
           style="font-variant:normal;font-weight:normal;font-size:13.27950001px;font-family:F1;-inkscape-font-specification:F1;writing-mode:lr-tb;fill:#000000;fill-opacity:1;fill-rule:nonzero;stroke:none"
           transform="translate(470.72,75.839996)"><tspan
             id="tspan22"
             y="0"
             x="0 9.5900297 12.909904 23.400709 26.720585 36.310616 39.630489 43.08316 47.505337 60.039162 68.15081 72.66584 77.18087 80.500748 87.140495 93.780243 97.100121 103.87267 110.37962 117.15216 120.47204 127.24458 133.75154 140.52408 144.10954 150.8821 157.38905 164.16159 170.93414 175.35632 181.86327 188.50302">C.G.C. (MF): 11.564.523/0001-87 </tspan></text>
</g><g
         id="g26"><text
           id="text30"
           style="font-variant:normal;font-weight:normal;font-size:13.27950001px;font-family:F1;-inkscape-font-specification:F1;writing-mode:lr-tb;fill:#000000;fill-opacity:1;fill-rule:nonzero;stroke:none"
           transform="translate(336.48001,91.040001)"><tspan
             id="tspan28"
             y="0"
             x="0 9.5900297 18.3545 30.888325 41.217545 51.044376 58.348099 67.378159 76.968193 86.55822 96.148247 106.47747 115.50753 122.81126 126.26392 134.37556 139.54343 149.13345 158.82748 168.52153 178.11156 186.87602 192.18782 201.77785 211.36789 218.6716 222.12428 231.71431 242.04353 245.4962 254.35352 264.04755 272.81201 282.50607 292.2001 297.24631 307.07312 312.11935 322.61014 325.93002 334.04169 339.20953 348.79956 358.38959 368.71881 372.17148 380.93594 393.46976 396.78964 403.56219 410.20193 413.6546 420.29437 427.06689 430.38678 437.15933 443.79907 450.43881 456.94577">DEMONSTRAÇÕES FINANCEIRAS DO EXERCÍCIO FINDO EM 31.12.2021 </tspan></text>
</g><g
         id="g32" /><g
         id="g34"><text
           id="text38"
           style="font-variant:normal;font-weight:normal;font-size:11.99950027px;font-family:F2;-inkscape-font-specification:F2;writing-mode:lr-tb;fill:#000000;fill-opacity:1;fill-rule:nonzero;stroke:none"
           transform="translate(526.33114,117.44)"><tspan
             id="tspan36"
             y="0"
             x="0 7.2008719 14.401744 21.602615 28.803488 36.00436 43.205231 50.406101 57.606976 64.807846 72.00872 79.209587 86.410461 93.611336 100.8122 108.01308 115.21395 122.41482 129.61569 136.81656 144.01744 151.21831 158.41917 165.62006 172.82092 180.02179 187.22267">DEMONSTRAÇÕES DO RESULTADO </tspan></text>
</g><g
         id="g40"><text
           id="text44"
           style="font-variant:normal;font-weight:normal;font-size:11.99950027px;font-family:F2;-inkscape-font-specification:F2;writing-mode:lr-tb;fill:#000000;fill-opacity:1;fill-rule:nonzero;stroke:none"
           transform="translate(526.33114,131.03999)"><tspan
             id="tspan42"
             y="0"
             x="0 7.2008719 14.401744 21.602615 28.803488 36.00436 43.205231 50.406101 57.606976 64.807846 72.00872 79.209587 86.410461 93.611336 100.8122 108.01308 115.21395 122.41482 129.61569 136.81656 144.01744 151.21831 158.41917 165.62006 172.82092 180.02179 187.22267">-------------------------- </tspan></text>
</g><g
         id="g46" /><g
         id="g48" /><g
         id="g50" /><g
         id="g52" /><g
         id="g54"><text
           id="text58"
           style="font-variant:normal;font-weight:normal;font-size:11.99950027px;font-family:F3;-inkscape-font-specification:F3;writing-mode:lr-tb;fill:#000000;fill-opacity:1;fill-rule:nonzero;stroke:none"
           transform="translate(670.40002,185.44)"><tspan
             id="tspan56"
             y="0"
             x="0 7.2008719 14.401744 21.602615 28.803488 36.00436 43.205231 50.406101 57.606976 64.807846">Em R$ 1,00</tspan></text>
</g><g
         id="g60" /><g
         id="g62"><text
           id="text66"
           style="font-variant:normal;font-weight:normal;font-size:11.99950027px;font-family:F3;-inkscape-font-specification:F3;writing-mode:lr-tb;fill:#000000;fill-opacity:1;fill-rule:nonzero;stroke:none"
           transform="translate(94.400002,199.03999)"><tspan
             id="tspan64"
             y="0"
             x="0 7.2008719 14.401744 21.602615 28.803488 36.00436 43.205231 50.406101 57.606976 64.807846 72.00872 79.209587 86.410461 93.611336 100.8122 108.01308 115.21395 122.41482 129.61569 136.81656 144.01744 151.21831 158.41917 165.62006 172.82092 180.02179 187.22267 194.42354 201.6244 208.82529 216.02615 223.22702 230.4279 237.62877 244.82964 252.03052 259.23138 266.43225 273.63312 280.83401 288.03488 295.23575 302.43661 309.63748 316.83835 324.03925 331.24011 338.44098 345.64185 352.84271 360.04358 367.24448 374.44534 381.52505 388.72592 395.92679 403.12766 410.32852 417.52939 424.73029 431.93115 439.13202 446.33289 453.53375 460.73462 467.93552 475.13638 482.33725 489.53812 496.73898 503.93985 511.14075 518.34161 525.54248 532.74335 539.94421 547.14508 554.34595 561.54681 568.74768 575.94861 583.14948 590.35034 597.55121 604.75208 611.95294 619.15381 626.35468 633.55554 640.75641 647.95728 655.15814 662.35907 669.55994 676.7608 683.96167 691.16254 698.3634 705.56427 712.76514 719.966 727.16687 734.36774 741.5686 748.76953 755.9704 763.17126 770.37213 777.573 784.77386 791.97473 799.1756 806.37646 813.57733 820.7782 827.97906 835.17999 842.38086 849.58173 856.78259 863.98346 871.18433 878.38519 885.58606 892.78693 899.98779 907.18866 914.38953">------------------------------------------------------------------------------------------------------------------------------- </tspan></text>
</g><g
         id="g68"><text
           id="text72"
           style="font-variant:normal;font-weight:normal;font-size:11.99950027px;font-family:F3;-inkscape-font-specification:F3;writing-mode:lr-tb;fill:#000000;fill-opacity:1;fill-rule:nonzero;stroke:none"
           transform="translate(224.01569,212.64)"><tspan
             id="tspan70"
             y="0"
             x="0 7.2008719 14.401744 21.602615 28.803488 36.00436 43.205231 50.406101 57.606976 64.807846 72.00872 79.209587 86.410461 93.611336 100.8122 108.01308 115.21395 122.41482 129.61569 136.81656 144.01744 151.21831 158.41917 165.62006 172.82092 180.02179 388.72592 395.92679 403.12766 410.32852 417.52939 475.13638 482.33725 489.53812 496.73898 503.93985 561.54681 568.74768 575.94861 583.14948 590.35034 647.95728 655.15814 662.35907 669.55994 676.7608 734.36774 741.5686 748.76953 755.9704 763.17126">D I S C R I M I N A Ç Ã O 2021 2020 2019 2018 2017 </tspan></text>
</g><g
         id="g74"><text
           id="text78"
           style="font-variant:normal;font-weight:normal;font-size:11.99950027px;font-family:F3;-inkscape-font-specification:F3;writing-mode:lr-tb;fill:#000000;fill-opacity:1;fill-rule:nonzero;stroke:none"
           transform="translate(94.400002,226.24)"><tspan
             id="tspan76"
             y="0"
             x="0 7.2008719 14.401744 21.602615 28.803488 36.00436 43.205231 50.406101 57.606976 64.807846 72.00872 79.209587 86.410461 93.611336 100.8122 108.01308 115.21395 122.41482 129.61569 136.81656 144.01744 151.21831 158.41917 165.62006 172.82092 180.02179 187.22267 194.42354 201.6244 208.82529 216.02615 223.22702 230.4279 237.62877 244.82964 252.03052 259.23138 266.43225 273.63312 280.83401 288.03488 295.23575 302.43661 309.63748 316.83835 324.03925 331.24011 338.44098 345.64185 352.84271 360.04358 367.24448 374.44534 381.52505 388.72592 395.92679 403.12766 410.32852 417.52939 424.73029 431.93115 439.13202 446.33289 453.53375 460.73462 467.93552 475.13638 482.33725 489.53812 496.73898 503.93985 511.14075 518.34161 525.54248 532.74335 539.94421 547.14508 554.34595 561.54681 568.74768 575.94861 583.14948 590.35034 597.55121 604.75208 611.95294 619.15381 626.35468 633.55554 640.75641 647.95728 655.15814 662.35907 669.55994 676.7608 683.96167 691.16254 698.3634 705.56427 712.76514 719.966 727.16687 734.36774 741.5686 748.76953 755.9704 763.17126 770.37213 777.573 784.77386 791.97473 799.1756 806.37646 813.57733 820.7782 827.97906 835.17999 842.38086 849.58173 856.78259 863.98346 871.18433 878.38519 885.58606 892.78693 899.98779 907.18866 914.38953">------------------------------------------------------------------------------------------------------------------------------- </tspan></text>
</g><g
         id="g80"><text
           id="text84"
           style="font-variant:normal;font-weight:normal;font-size:11.99950027px;font-family:F3;-inkscape-font-specification:F3;writing-mode:lr-tb;fill:#000000;fill-opacity:1;fill-rule:nonzero;stroke:none"
           transform="translate(94.400002,239.84)"><tspan
             id="tspan82"
             y="0"
             x="0 7.2008719 14.401744 21.602615 28.803488 36.00436 43.205231 50.406101 57.606976 64.807846 72.00872 79.209587 86.410461 93.611336 100.8122 108.01308 115.21395 122.41482 129.61569 136.81656 144.01744 151.21831 158.41917 165.62006 172.82092 180.02179 187.22267 194.42354 201.6244 208.82529 216.02615 223.22702 230.4279 237.62877 244.82964 252.03052 259.23138 266.43225 273.63312 280.83401 288.03488 295.23575 302.43661 309.63748 316.83835 324.03925 331.24011 338.44098 345.64185 352.84271 360.04358 367.24448 374.44534 381.52505 388.72592 395.92679 403.12766 410.32852 417.52939 424.73029 431.93115 439.13202 446.33289 453.53375 460.73462 467.93552 539.94421 547.14508 626.35468 633.55554 712.76514 719.966 799.1756 806.37646 885.58606 892.78693">RECEITA OPERACIONAL BRUTA ....................................... - - - - - </tspan></text>
</g><g
         id="g86"><text
           id="text90"
           style="font-variant:normal;font-weight:normal;font-size:11.99950027px;font-family:F3;-inkscape-font-specification:F3;writing-mode:lr-tb;fill:#000000;fill-opacity:1;fill-rule:nonzero;stroke:none"
           transform="translate(94.400002,253.44)"><tspan
             id="tspan88"
             y="0"
             x="0 7.2008719 14.401744 21.602615 28.803488 36.00436 43.205231 50.406101 57.606976 64.807846 72.00872 79.209587 86.410461 93.611336 100.8122 108.01308 115.21395 122.41482 129.61569 136.81656 144.01744 151.21831 158.41917 165.62006 172.82092 180.02179 187.22267 194.42354 201.6244 208.82529 216.02615 223.22702 230.4279 237.62877 244.82964 252.03052 259.23138 266.43225 273.63312 280.83401 288.03488 295.23575 302.43661 309.63748 316.83835 324.03925 331.24011 338.44098 345.64185 352.84271 360.04358 367.24448 374.44534 381.52505 388.72592 395.92679 403.12766 410.32852 417.52939 424.73029 431.93115 439.13202 446.33289 453.53375 460.73462 467.93552 539.94421 547.14508 626.35468 633.55554 712.76514 719.966 799.1756 806.37646 885.58606 892.78693">IMPOSTO SOBRE SERVIÇOS .......................................... - - - - - </tspan></text>
</g><g
         id="g92"><text
           id="text96"
           style="font-variant:normal;font-weight:normal;font-size:11.99950027px;font-family:F3;-inkscape-font-specification:F3;writing-mode:lr-tb;fill:#000000;fill-opacity:1;fill-rule:nonzero;stroke:none"
           transform="translate(94.400002,267.04001)"><tspan
             id="tspan94"
             y="0"
             x="0 7.2008719 14.401744 21.602615 28.803488 36.00436 43.205231 50.406101 57.606976 64.807846 72.00872 79.209587 86.410461 93.611336 100.8122 108.01308 115.21395 122.41482 129.61569 136.81656 144.01744 151.21831 158.41917 165.62006 172.82092 180.02179 187.22267 194.42354 201.6244 208.82529 216.02615 223.22702 230.4279 237.62877 244.82964 252.03052 259.23138 266.43225 273.63312 280.83401 288.03488 295.23575 302.43661 309.63748 316.83835 324.03925 331.24011 338.44098 345.64185 352.84271 360.04358 367.24448 374.44534 381.52505 388.72592 395.92679 403.12766 410.32852 417.52939 424.73029 431.93115 439.13202 446.33289 453.53375 460.73462 467.93552 539.94421 547.14508 626.35468 633.55554 712.76514 719.966 799.1756 806.37646 885.58606 892.78693">CUSTO DOS SERVIÇOS PRESTADOS .................................... - - - - - </tspan></text>
</g><g
         id="g98"><text
           id="text102"
           style="font-variant:normal;font-weight:normal;font-size:11.99950027px;font-family:F3;-inkscape-font-specification:F3;writing-mode:lr-tb;fill:#000000;fill-opacity:1;fill-rule:nonzero;stroke:none"
           transform="translate(94.400002,280.64001)"><tspan
             id="tspan100"
             y="0"
             x="0 7.2008719 14.401744 21.602615 28.803488 36.00436 43.205231 50.406101 57.606976 64.807846 72.00872 79.209587 86.410461 93.611336 100.8122 108.01308 115.21395 122.41482 129.61569 136.81656 144.01744 151.21831 158.41917 165.62006 172.82092 180.02179 187.22267 194.42354 201.6244 208.82529 216.02615 223.22702 230.4279 237.62877 244.82964 252.03052 259.23138 266.43225 273.63312 280.83401 288.03488 295.23575 302.43661 309.63748 316.83835 324.03925 331.24011 338.44098 345.64185 352.84271 360.04358 367.24448 374.44534 381.52505 388.72592 395.92679 403.12766 410.32852 417.52939 424.73029 431.93115 439.13202 446.33289 453.53375 460.73462 467.93552 539.94421 547.14508 626.35468 633.55554 712.76514 719.966 799.1756 806.37646 885.58606 892.78693">RESULTADO BRUTO ................................................. - - - - - </tspan></text>
</g><g
         id="g104"><text
           id="text108"
           style="font-variant:normal;font-weight:normal;font-size:11.99950027px;font-family:F3;-inkscape-font-specification:F3;writing-mode:lr-tb;fill:#000000;fill-opacity:1;fill-rule:nonzero;stroke:none"
           transform="translate(94.400002,294.23999)"><tspan
             id="tspan106"
             y="0"
             x="0 7.2008719 14.401744 21.602615 28.803488 36.00436 43.205231 50.406101 57.606976 64.807846 72.00872 79.209587 86.410461 93.611336 100.8122 108.01308 115.21395 122.41482 129.61569 136.81656 144.01744 151.21831 158.41917 165.62006 172.82092 180.02179 187.22267 194.42354 201.6244 208.82529 216.02615 223.22702 230.4279 237.62877 244.82964 252.03052 259.23138 266.43225 273.63312 280.83401 288.03488 295.23575 302.43661 309.63748 316.83835 324.03925 331.24011 338.44098 345.64185 352.84271 360.04358 367.24448 374.44534 381.52505 388.72592 395.92679 403.12766 410.32852 417.52939 424.73029 431.93115 439.13202 446.33289 453.53375 460.73462 467.93552 496.73898 503.93985 511.14075 518.34161 525.54248 532.74335 539.94421 547.14508 554.34595 583.14948 590.35034 597.55121 604.75208 611.95294 619.15381 626.35468 633.55554 640.75641 669.55994 676.7608 683.96167 691.16254 698.3634 705.56427 712.76514 719.966 727.16687 799.1756 806.37646 820.7782 827.97906 835.17999 842.38086 849.58173 856.78259 863.98346 871.18433 878.38519 885.58606 892.78693 899.98779">DESPESAS OPERACIONAIS ........................................... (13.414) (11.430) (11.441) - (2.250.022) </tspan></text>
</g><g
         id="g110"><text
           id="text114"
           style="font-variant:normal;font-weight:normal;font-size:11.99950027px;font-family:F3;-inkscape-font-specification:F3;writing-mode:lr-tb;fill:#000000;fill-opacity:1;fill-rule:nonzero;stroke:none"
           transform="translate(94.400002,307.84)"><tspan
             id="tspan112"
             y="0"
             x="0 7.2008719 14.401744 21.602615 28.803488 36.00436 43.205231 50.406101 57.606976 64.807846 72.00872 79.209587 86.410461 93.611336 100.8122 108.01308 115.21395 122.41482 129.61569 136.81656 144.01744 151.21831 158.41917 165.62006 172.82092 180.02179 187.22267 194.42354 201.6244 208.82529 216.02615 223.22702 230.4279 237.62877 244.82964 252.03052 259.23138 266.43225 273.63312 280.83401 288.03488 295.23575 302.43661 309.63748 316.83835 324.03925 331.24011 338.44098 345.64185 352.84271 360.04358 367.24448 374.44534 381.52505 388.72592 395.92679 403.12766 410.32852 417.52939 424.73029 431.93115 439.13202 446.33289 453.53375 460.73462 467.93552 539.94421 547.14508 626.35468 633.55554 676.7608 683.96167 691.16254 698.3634 705.56427 712.76514 719.966 799.1756 806.37646 849.58173 856.78259 863.98346 871.18433 878.38519 885.58606 892.78693">OUTRAS RECEITAS OPERACIONAIS .................................... - - 15.816 - 14.848 </tspan></text>
</g><g
         id="g116"><text
           id="text120"
           style="font-variant:normal;font-weight:normal;font-size:11.99950027px;font-family:F3;-inkscape-font-specification:F3;writing-mode:lr-tb;fill:#000000;fill-opacity:1;fill-rule:nonzero;stroke:none"
           transform="translate(94.400002,321.44)"><tspan
             id="tspan118"
             y="0"
             x="0 7.2008719 14.401744 21.602615 28.803488 36.00436 43.205231 50.406101 57.606976 64.807846 72.00872 79.209587 86.410461 93.611336 100.8122 108.01308 115.21395 122.41482 129.61569 136.81656 144.01744 151.21831 158.41917 165.62006 172.82092 180.02179 187.22267 194.42354 201.6244 208.82529 216.02615 223.22702 230.4279 237.62877 244.82964 252.03052 259.23138 266.43225 273.63312 280.83401 288.03488 295.23575 302.43661 309.63748 316.83835 324.03925 331.24011 338.44098 345.64185 352.84271 360.04358 367.24448 374.44534 381.52505 388.72592 395.92679 403.12766 410.32852 417.52939 424.73029 431.93115 439.13202 446.33289 453.53375 460.73462 467.93552 539.94421 547.14508 626.35468 633.55554 712.76514 719.966 799.1756 806.37646 885.58606 892.78693">RESULTADO DE EQUIVALÊNCIA PATRIMONIAL............................ - - - - - </tspan></text>
</g><g
         id="g122"><text
           id="text126"
           style="font-variant:normal;font-weight:normal;font-size:11.99950027px;font-family:F3;-inkscape-font-specification:F3;writing-mode:lr-tb;fill:#000000;fill-opacity:1;fill-rule:nonzero;stroke:none"
           transform="translate(94.400002,335.04001)"><tspan
             id="tspan124"
             y="0"
             x="0 7.2008719 14.401744 21.602615 28.803488 36.00436 43.205231 50.406101 57.606976 64.807846 72.00872 79.209587 86.410461 93.611336 100.8122 108.01308 115.21395 122.41482 129.61569 136.81656 144.01744 151.21831 158.41917 165.62006 172.82092 180.02179 187.22267 194.42354 201.6244 208.82529 216.02615 223.22702 230.4279 237.62877 244.82964 252.03052 259.23138 266.43225 273.63312 280.83401 288.03488 295.23575 302.43661 309.63748 316.83835 324.03925 331.24011 338.44098 345.64185 352.84271 360.04358 367.24448 374.44534 381.52505 388.72592 395.92679 403.12766 410.32852 417.52939 424.73029 431.93115 439.13202 446.33289 453.53375 460.73462 467.93552 496.73898 503.93985 511.14075 518.34161 525.54248 532.74335 539.94421 547.14508 554.34595 583.14948 590.35034 597.55121 604.75208 611.95294 619.15381 626.35468 633.55554 640.75641 683.96167 691.16254 698.3634 705.56427 712.76514 719.966 799.1756 806.37646 820.7782 827.97906 835.17999 842.38086 849.58173 856.78259 863.98346 871.18433 878.38519 885.58606 892.78693 899.98779">RESULTADO OPERACIONAL ........................................... (13.414) (11.430) 4.375 - (2.235.174) </tspan></text>
</g><g
         id="g128"><text
           id="text132"
           style="font-variant:normal;font-weight:normal;font-size:11.99950027px;font-family:F3;-inkscape-font-specification:F3;writing-mode:lr-tb;fill:#000000;fill-opacity:1;fill-rule:nonzero;stroke:none"
           transform="translate(94.400002,348.64001)"><tspan
             id="tspan130"
             y="0"
             x="0 7.2008719 14.401744 21.602615 28.803488 36.00436 43.205231 50.406101 57.606976 64.807846 72.00872 79.209587 86.410461 93.611336 100.8122 108.01308 115.21395 122.41482 129.61569 136.81656 144.01744 151.21831 158.41917 165.62006 172.82092 180.02179 187.22267 194.42354 201.6244 208.82529 216.02615 223.22702 230.4279 237.62877 244.82964 252.03052 259.23138 266.43225 273.63312 280.83401 288.03488 295.23575 302.43661 309.63748 316.83835 324.03925 331.24011 338.44098 345.64185 352.84271 360.04358 367.24448 374.44534 381.52505 388.72592 395.92679 403.12766 410.32852 417.52939 424.73029 431.93115 439.13202 446.33289 453.53375 460.73462 467.93552 539.94421 547.14508 626.35468 633.55554 712.76514 719.966 799.1756 806.37646 885.58606 892.78693">RESULTADO NÃO OPERACIONAL ....................................... - - - - - </tspan></text>
</g><g
         id="g134"><text
           id="text138"
           style="font-variant:normal;font-weight:normal;font-size:11.99950027px;font-family:F3;-inkscape-font-specification:F3;writing-mode:lr-tb;fill:#000000;fill-opacity:1;fill-rule:nonzero;stroke:none"
           transform="translate(94.400002,362.23999)"><tspan
             id="tspan136"
             y="0"
             x="0 7.2008719 14.401744 21.602615 28.803488 36.00436 43.205231 50.406101 57.606976 64.807846 72.00872 79.209587 86.410461 93.611336 100.8122 108.01308 115.21395 122.41482 129.61569 136.81656 144.01744 151.21831 158.41917 165.62006 172.82092 180.02179 187.22267 194.42354 201.6244 208.82529 216.02615 223.22702 230.4279 237.62877 244.82964 252.03052 259.23138 266.43225 273.63312 280.83401 288.03488 295.23575 302.43661 309.63748 316.83835 324.03925 331.24011 338.44098 345.64185 352.84271 360.04358 367.24448 374.44534 381.52505 388.72592 395.92679 403.12766 410.32852 417.52939 424.73029 431.93115 439.13202 446.33289 453.53375 460.73462 467.93552 496.73898 503.93985 511.14075 518.34161 525.54248 532.74335 539.94421 547.14508 554.34595 583.14948 590.35034 597.55121 604.75208 611.95294 619.15381 626.35468 633.55554 640.75641 683.96167 691.16254 698.3634 705.56427 712.76514 719.966 799.1756 806.37646 820.7782 827.97906 835.17999 842.38086 849.58173 856.78259 863.98346 871.18433 878.38519 885.58606 892.78693 899.98779">LUCRO ANTES DA TRIBUTAÇÃO SOBRE O LUCRO ......................... (13.414) (11.430) 4.375 - (2.235.174) </tspan></text>
</g><g
         id="g140"><text
           id="text144"
           style="font-variant:normal;font-weight:normal;font-size:11.99950027px;font-family:F3;-inkscape-font-specification:F3;writing-mode:lr-tb;fill:#000000;fill-opacity:1;fill-rule:nonzero;stroke:none"
           transform="translate(94.400002,375.84)"><tspan
             id="tspan142"
             y="0"
             x="0 7.2008719 14.401744 21.602615 28.803488 36.00436 43.205231 50.406101 57.606976 64.807846 72.00872 79.209587 86.410461 93.611336 100.8122 108.01308 115.21395 122.41482 129.61569 136.81656 144.01744 151.21831 158.41917 165.62006 172.82092 180.02179 187.22267 194.42354 201.6244 208.82529 216.02615 223.22702 230.4279 237.62877 244.82964 252.03052 259.23138 266.43225 273.63312 280.83401 288.03488 295.23575 302.43661 309.63748 316.83835 324.03925 331.24011 338.44098 345.64185 352.84271 360.04358 367.24448 374.44534 381.52505 388.72592 395.92679 403.12766 410.32852 417.52939 424.73029 431.93115 439.13202 446.33289 453.53375 460.73462 467.93552 518.34161 525.54248 626.35468 633.55554 712.76514 719.966 799.1756 806.37646 885.58606 892.78693">IMPOSTO DE RENDA ................................................ - - - - - </tspan></text>
</g><g
         id="g146"><text
           id="text150"
           style="font-variant:normal;font-weight:normal;font-size:11.99950027px;font-family:F3;-inkscape-font-specification:F3;writing-mode:lr-tb;fill:#000000;fill-opacity:1;fill-rule:nonzero;stroke:none"
           transform="translate(94.400002,389.44)"><tspan
             id="tspan148"
             y="0"
             x="0 7.2008719 14.401744 21.602615 28.803488 36.00436 43.205231 50.406101 57.606976 64.807846 72.00872 79.209587 86.410461 93.611336 100.8122 108.01308 115.21395 122.41482 129.61569 136.81656 144.01744 151.21831 158.41917 165.62006 172.82092 180.02179 187.22267 194.42354 201.6244 208.82529 216.02615 223.22702 230.4279 237.62877 244.82964 252.03052 259.23138 266.43225 273.63312 280.83401 288.03488 295.23575 302.43661 309.63748 316.83835 324.03925 331.24011 338.44098 345.64185 352.84271 360.04358 367.24448 374.44534 381.52505 388.72592 395.92679 403.12766 410.32852 417.52939 424.73029 431.93115 439.13202 446.33289 453.53375 460.73462 467.93552 518.34161 525.54248 626.35468 633.55554 712.76514 719.966 799.1756 806.37646 885.58606 892.78693">CONTRIBUIÇÃO SOCIAL ............................................. - - - - - </tspan></text>
</g><g
         id="g152"><text
           id="text156"
           style="font-variant:normal;font-weight:normal;font-size:11.99950027px;font-family:F3;-inkscape-font-specification:F3;writing-mode:lr-tb;fill:#000000;fill-opacity:1;fill-rule:nonzero;stroke:none"
           transform="translate(94.400002,403.04001)"><tspan
             id="tspan154"
             y="0"
             x="0 7.2008719 14.401744 21.602615 28.803488 36.00436 43.205231 50.406101 57.606976 64.807846 72.00872 79.209587 86.410461 93.611336 100.8122 108.01308 115.21395 122.41482 129.61569 136.81656 144.01744 151.21831 158.41917 165.62006 172.82092 180.02179 187.22267 194.42354 201.6244 208.82529 216.02615 223.22702 230.4279 237.62877 244.82964 252.03052 259.23138 266.43225 273.63312 280.83401 288.03488 295.23575 302.43661 309.63748 316.83835 324.03925 331.24011 338.44098 345.64185 352.84271 360.04358 367.24448 374.44534 381.52505 388.72592 395.92679 403.12766 410.32852 417.52939 424.73029 431.93115 439.13202 446.33289 453.53375 460.73462 467.93552 496.73898 503.93985 511.14075 518.34161 525.54248 532.74335 539.94421 547.14508 554.34595 583.14948 590.35034 597.55121 604.75208 611.95294 619.15381 626.35468 633.55554 640.75641 683.96167 691.16254 698.3634 705.56427 712.76514 719.966 799.1756 806.37646 820.7782 827.97906 835.17999 842.38086 849.58173 856.78259 863.98346 871.18433 878.38519 885.58606 892.78693 899.98779">RESULTADO LÍQUIDO DO EXERCÍCIO .................................. (13.414) (11.430) 4.375 - (2.235.174) </tspan></text>
</g><g
         id="g158"><text
           id="text162"
           style="font-variant:normal;font-weight:normal;font-size:11.99950027px;font-family:F3;-inkscape-font-specification:F3;writing-mode:lr-tb;fill:#000000;fill-opacity:1;fill-rule:nonzero;stroke:none"
           transform="translate(94.400002,416.64001)"><tspan
             id="tspan160"
             y="0"
             x="0 7.2008719 14.401744 21.602615 28.803488 36.00436 43.205231 50.406101 57.606976 64.807846 72.00872 79.209587 86.410461 93.611336 100.8122 108.01308 115.21395 122.41482 129.61569 136.81656 144.01744 151.21831 158.41917 165.62006 172.82092 180.02179 187.22267 194.42354 201.6244 208.82529 216.02615 223.22702 230.4279 237.62877 244.82964 252.03052 259.23138 266.43225 273.63312 280.83401 288.03488 295.23575 302.43661 309.63748 316.83835 324.03925 331.24011 338.44098 345.64185 352.84271 360.04358 367.24448 374.44534 381.52505 388.72592 395.92679 403.12766 410.32852 417.52939 424.73029 431.93115 439.13202 446.33289 453.53375 460.73462 467.93552 475.13638 482.33725 489.53812 496.73898 503.93985 511.14075 518.34161 525.54248 532.74335 539.94421 547.14508 554.34595 561.54681 568.74768 575.94861 583.14948 590.35034 597.55121 604.75208 611.95294 619.15381 626.35468 633.55554 640.75641 647.95728 655.15814 662.35907 669.55994 676.7608 683.96167 691.16254 698.3634 705.56427 712.76514 719.966 727.16687 734.36774 741.5686 748.76953 755.9704 763.17126 770.37213 777.573 784.77386 791.97473 799.1756 806.37646 813.57733 820.7782 827.97906 835.17999 842.38086 849.58173 856.78259 863.98346 871.18433 878.38519 885.58606 892.78693 899.98779 907.18866 914.38953">------------------------------------------------------------------------------------------------------------------------------- </tspan></text>
</g><g
         id="g164"><text
           id="text168"
           style="font-variant:normal;font-weight:normal;font-size:11.99950027px;font-family:F3;-inkscape-font-specification:F3;writing-mode:lr-tb;fill:#000000;fill-opacity:1;fill-rule:nonzero;stroke:none"
           transform="translate(94.400002,430.07999)"><tspan
             id="tspan166"
             y="0"
             x="0 7.2008719 14.401744 21.602615 28.803488 36.00436 43.205231 50.406101 57.606976 64.807846 72.00872 79.209587 86.410461 93.611336 100.8122 108.01308 115.21395 122.41482 129.61569 136.81656 144.01744 151.21831 158.41917 165.62006 172.82092 180.02179 187.22267 194.42354 201.6244 208.82529 216.02615 223.22702 230.4279 237.62877 244.82964 252.03052 259.23138 266.43225 273.63312 280.83401 288.03488 295.23575 302.43661 309.63748 316.83835 324.03925 331.24011 338.44098 345.64185 352.84271 360.04358 367.24448 374.44534 381.52505 388.72592 395.92679 403.12766 410.32852 417.52939 424.73029 431.93115 439.13202 446.33289 453.53375 460.73462 467.93552 496.73898 503.93985 511.14075 518.34161 525.54248 532.74335 539.94421 547.14508 583.14948 590.35034 597.55121 604.75208 611.95294 619.15381 626.35468 633.55554 669.55994 676.7608 683.96167 691.16254 698.3634 705.56427 712.76514 719.966 755.9704 763.17126 770.37213 777.573 784.77386 791.97473 799.1756 806.37646 842.38086 849.58173 856.78259 863.98346 871.18433 878.38519 885.58606 892.78693">Número de Ações (Mil) ........................................... 776.907 776.907 776.907 776.907 776.907 </tspan></text>
</g><g
         id="g170"><text
           id="text174"
           style="font-variant:normal;font-weight:normal;font-size:11.99950027px;font-family:F3;-inkscape-font-specification:F3;writing-mode:lr-tb;fill:#000000;fill-opacity:1;fill-rule:nonzero;stroke:none"
           transform="translate(94.400002,443.67999)"><tspan
             id="tspan172"
             y="0"
             x="0 7.2008719 14.401744 21.602615 28.803488 36.00436 43.205231 50.406101 57.606976 64.807846 72.00872 79.209587 86.410461 93.611336 100.8122 108.01308 115.21395 122.41482 129.61569 136.81656 144.01744 151.21831 158.41917 165.62006 172.82092 180.02179 187.22267 194.42354 201.6244 208.82529 216.02615 223.22702 230.4279 237.62877 244.82964 252.03052 259.23138 266.43225 273.63312 280.83401 288.03488 295.23575 302.43661 309.63748 316.83835 324.03925 331.24011 338.44098 345.64185 352.84271 360.04358 367.24448 374.44534 381.52505 388.72592 395.92679 403.12766 410.32852 417.52939 424.73029 431.93115 439.13202 446.33289 453.53375 460.73462 467.93552 511.14075 518.34161 525.54248 532.74335 539.94421 547.14508 554.34595 597.55121 604.75208 611.95294 619.15381 626.35468 633.55554 640.75641 691.16254 698.3634 705.56427 712.76514 719.966 777.573 784.77386 791.97473 799.1756 806.37646 849.58173 856.78259 863.98346 871.18433 878.38519 885.58606 892.78693">Resultado Líquido por Lote de Mil Ações ......................... (0,02) (0,01) 0,01 0,00 (2,88) </tspan></text>
</g><g
         id="g176"><text
           id="text180"
           style="font-variant:normal;font-weight:normal;font-size:11.99950027px;font-family:F3;-inkscape-font-specification:F3;writing-mode:lr-tb;fill:#000000;fill-opacity:1;fill-rule:nonzero;stroke:none"
           transform="translate(94.400002,457.28)"><tspan
             id="tspan178"
             y="0"
             x="0 7.2008719 14.401744 21.602615 28.803488 36.00436 43.205231 50.406101 57.606976 64.807846 72.00872 79.209587 86.410461 93.611336 100.8122 108.01308 115.21395 122.41482 129.61569 136.81656 144.01744 151.21831 158.41917 165.62006 172.82092 180.02179 187.22267 194.42354 201.6244 208.82529 216.02615 223.22702 230.4279 237.62877 244.82964 252.03052 259.23138 266.43225 273.63312 280.83401 288.03488 295.23575 302.43661 309.63748 316.83835 324.03925 331.24011 338.44098 345.64185 352.84271 360.04358 367.24448 374.44534 381.52505 388.72592 395.92679 403.12766 410.32852 417.52939 424.73029 431.93115 439.13202 446.33289 453.53375 460.73462 467.93552 475.13638 482.33725 489.53812 496.73898 503.93985 511.14075 518.34161 525.54248 532.74335 539.94421 547.14508 554.34595 561.54681 568.74768 575.94861 583.14948 590.35034 597.55121 604.75208 611.95294 619.15381 626.35468 633.55554 640.75641 647.95728 655.15814 662.35907 669.55994 676.7608 683.96167 691.16254 698.3634 705.56427 712.76514 719.966 727.16687 734.36774 741.5686 748.76953 755.9704 763.17126 770.37213 777.573 784.77386 791.97473 799.1756 806.37646 813.57733 820.7782 827.97906 835.17999 842.38086 849.58173 856.78259 863.98346 871.18433 878.38519 885.58606 892.78693 899.98779 907.18866 914.38953">------------------------------------------------------------------------------------------------------------------------------- </tspan></text>
</g><g
         id="g182" /><g
         id="g184" /><g
         id="g186" /><g
         id="g188" /><g
         id="g190"><text
           id="text194"
           style="font-variant:normal;font-weight:normal;font-size:11.99950027px;font-family:F3;-inkscape-font-specification:F3;writing-mode:lr-tb;fill:#000000;fill-opacity:1;fill-rule:nonzero;stroke:none"
           transform="translate(94.400002,525.28003)"><tspan
             id="tspan192"
             y="0"
             x="0 7.2008719 14.401744 21.602615 28.803488 36.00436 43.205231 50.406101 57.606976 64.807846 72.00872 79.209587 86.410461 93.611336 100.8122 108.01308 115.21395 122.41482 129.61569 136.81656 144.01744 151.21831 158.41917 165.62006 172.82092 180.02179 187.22267 194.42354 201.6244 208.82529 216.02615 223.22702 230.4279 237.62877 244.82964 252.03052 259.23138 266.43225 273.63312 280.83401 288.03488 295.23575 302.43661 309.63748 316.83835 324.03925 331.24011 338.44098 345.64185 352.84271 360.04358 367.24448 374.44534 381.52505 388.72592 395.92679 403.12766 410.32852 417.52939 653.08075 660.28162 667.48248 674.68335 681.88422 689.08514 696.28601 703.48688 710.68774 717.88861 725.08948 732.29034 739.49121 746.69208 753.89294 761.09381 768.29468 775.49561 782.69647 789.89734 797.09821 804.29907 811.49994 818.70081 825.90167 833.10254 840.30341 847.50427 854.70514">Santa Luzia Empreendimentos Imobiliários S/A em Liquidação Marcos Antonio Pinto Ribeiro </tspan></text>
</g><g
         id="g196"><text
           id="text200"
           style="font-variant:normal;font-weight:normal;font-size:11.99950027px;font-family:F3;-inkscape-font-specification:F3;writing-mode:lr-tb;fill:#000000;fill-opacity:1;fill-rule:nonzero;stroke:none"
           transform="translate(94.400002,538.88)"><tspan
             id="tspan198"
             y="0"
             x="0 7.2008719 14.401744 21.602615 28.803488 36.00436 43.205231 50.406101 57.606976 64.807846 72.00872 79.209587 86.410461 93.611336 100.8122 108.01308 115.21395 122.41482 129.61569 136.81656 144.01744 151.21831 158.41917 165.62006 172.82092 180.02179 187.22267 194.42354 201.6244 208.82529 216.02615 223.22702 230.4279 237.62877 244.82964 252.03052 259.23138 266.43225 273.63312 653.05731 660.25818 667.45905 674.65991 681.86078 689.06171 696.26257 703.46344 710.66431 725.06604 732.26691 739.46777 746.66864 753.86951 761.07037 768.27124 775.47217 782.67303 789.8739">Paulo Fernando de Araújo Pereira Filho CRC - PE Nº 13.102 </tspan></text>
</g><g
         id="g202"><text
           id="text206"
           style="font-variant:normal;font-weight:normal;font-size:11.99950027px;font-family:F3;-inkscape-font-specification:F3;writing-mode:lr-tb;fill:#000000;fill-opacity:1;fill-rule:nonzero;stroke:none"
           transform="translate(94.400002,552.47998)"><tspan
             id="tspan204"
             y="0"
             x="0 7.2008719 14.401744 21.602615 28.803488 36.00436 43.205231 50.406101 57.606976 64.807846 72.00872 79.209587 86.410461 93.611336 100.8122 108.01308 115.21395 122.41482 129.61569 136.81656 144.01744 151.21831 158.41917 165.62006 172.82092 180.02179 187.22267 194.42354 201.6244 208.82529 216.02615 223.22702 230.4279 237.62877 244.82964 252.03052 259.23138 266.43225 273.63312 280.83401 288.03488">De acordo com o artigo 150 parágrafo 2º, </tspan></text>
</g><g
         id="g208"><text
           id="text212"
           style="font-variant:normal;font-weight:normal;font-size:11.99950027px;font-family:F3;-inkscape-font-specification:F3;writing-mode:lr-tb;fill:#000000;fill-opacity:1;fill-rule:nonzero;stroke:none"
           transform="translate(94.400002,566.08002)"><tspan
             id="tspan210"
             y="0"
             x="0 7.2008719 14.401744 21.602615 28.803488 36.00436 43.205231 50.406101 57.606976 64.807846 72.00872 79.209587 86.410461 93.611336 100.8122 108.01308 115.21395 122.41482 129.61569 136.81656 144.01744 151.21831 158.41917 165.62006 172.82092 180.02179 187.22267 194.42354">da Lei 6.404, de 15/12/1976 </tspan></text>
</g><g
         id="g214" /><g
         id="g216" /></g><g
       id="g218"><g
         transform="translate(20.453,115.39)"
         id="g220"><g
           id="g222" /><g
           id="g236"><g
             id="g234"
             clip-path="url(#clipPath226)"><g
               id="g232"
               transform="matrix(1,0,0,-1,0,22)"><g
                 id="g230"><path
                   id="path228"
                   style="fill:#e0e0e0;fill-opacity:1;fill-rule:nonzero;stroke:none"
                   d="M 0,0 H 168 V 22 H 0 Z" /></g></g></g></g></g></g><g
       id="g238"><text
         id="text242"
         style="font-variant:normal;font-weight:normal;font-size:18px;font-family:ArialMT-Identity;-inkscape-font-specification:ArialMT-Identity-H;writing-mode:lr-tb;fill:#000000;fill-opacity:1;fill-rule:nonzero;stroke:none"
         transform="matrix(1,0,0,-1,20.453,120.7)"><tspan
           id="tspan240"
           y="0"
           x="0 10.008 15.012 20.016001 30.024 35.028 40.032001 45.035999 55.043999 65.052002 74.052002 84.059998 94.068001 103.068 113.076 118.08 122.076 137.07001 147.078 152.082 162.09">http://advance.imb.br</tspan></text>
</g></g></svg>